<svg xmlns:dc="http://purl.org/dc/elements/1.1/" xmlns:cc="http://creativecommons.org/ns#" xmlns:rdf="http://www.w3.org/1999/02/22-rdf-syntax-ns#" xmlns:svg="http://www.w3.org/2000/svg" xmlns="http://www.w3.org/2000/svg" viewBox="0 0 159.18668 24.973333" height="24.973333" width="159.18668" xml:space="preserve" id="svg2" version="1.1" xmlns:xlink="http://www.w3.org/1999/xlink">
 <metadata id="metadata8">
  <rdf:RDF>
   <cc:Work rdf:about="">
    <dc:format>
     image/svg+xml
    </dc:format>
    <dc:type rdf:resource="http://purl.org/dc/dcmitype/StillImage">
    </dc:type>
   </cc:Work>
  </rdf:RDF>
 </metadata>
 <defs id="defs6">
 </defs>
 <g transform="matrix(1.3333333,0,0,-1.3333333,0,24.973333)" id="g10">
  <g transform="scale(0.1)" id="g12">
   <path id="path14" style="fill:#ffffff;fill-opacity:1;fill-rule:nonzero;stroke:none" d="M 68.9414,91.6172 C 76.7813,121.09 67.8359,151.984 46.4297,168.355 17.2695,149.898 0.453125,115.188 6.52734,79.0273 8.53125,67.0742 12.8672,56.0898 18.9688,46.4609 41.7617,52.8086 61.8125,64.8281 68.9414,91.6172 Z M 108.297,6.54297 c 48.125,8.07813 80.574,53.64453 72.488,101.75403 -6.726,40.039 -39.375,69.226 -77.871,73.258 -7.7734,0.812 -15.8007,0.593 -23.8945,-0.762 -9.6015,-1.609 -18.5468,-4.727 -26.6992,-9.055 42.4102,-14.383 65.2147,-36.254 66.7967,-58.656 0.781,-13.8398 -5.656,-23.8437 -14.101,-31.9961 l 59.98,4.1875 c 1.688,0.1172 2.227,-1.8593 0.164,-2.4492 L 22.1133,41.8086 C 36.6758,21.75 59.293,8.41016 84.3984,5.78125 92.1719,4.96875 100.199,5.17578 108.297,6.54297 Z M 103.461,186.816 C 150.582,181.914 187.32,142.105 187.34,93.7031 187.359,41.9688 145.434,0.0195313 93.707,0 41.9688,-0.0195313 0.015625,41.9063 0.00390625,93.6328 -0.015625,145.367 41.9102,187.32 93.6367,187.336 c 3.3125,0 6.5933,-0.184 9.8243,-0.52">
   </path>
   <path id="path16" style="fill:#cf181f;fill-opacity:1;fill-rule:nonzero;stroke:none" d="M 6.52734,79.0273 C 8.53125,67.0742 12.8672,56.0898 18.9688,46.4609 41.7617,52.8086 61.8125,64.8281 68.9414,91.6172 76.7813,121.09 67.8359,151.984 46.4297,168.355 17.2695,149.898 0.453125,115.188 6.52734,79.0273 Z M 180.785,108.297 C 188.871,60.1875 156.422,14.6211 108.297,6.54297 100.199,5.17578 92.1719,4.96875 84.3984,5.78125 59.293,8.41016 36.6758,21.75 22.1133,41.8086 L 165.16,82.8242 c 2.063,0.5899 1.524,2.5664 -0.164,2.4492 l -59.98,-4.1875 c 8.445,8.1524 14.882,18.1563 14.101,31.9961 -1.582,22.402 -24.3865,44.273 -66.7967,58.656 8.1524,4.328 17.0977,7.446 26.6992,9.055 8.0938,1.355 16.1211,1.574 23.8945,0.762 38.496,-4.032 71.145,-33.219 77.871,-73.258">
   </path>
   <path id="path18" style="fill:#231f20;fill-opacity:1;fill-rule:nonzero;stroke:none" d="M 672.484,56.9336 V 87.7305 H 641.605 V 56.9336 h -16.953 v 73.3554 h 16.953 v -29.23 h 30.879 v 29.23 h 17.071 V 56.9336 h -17.071">
   </path>
   <path id="path20" style="fill:#231f20;fill-opacity:1;fill-rule:nonzero;stroke:none" d="M 307.184,130.289 V 84.3594 c 0,-5.0703 0.75,-9.461 2.226,-13.0352 1.465,-3.5469 3.582,-6.4883 6.309,-8.7539 2.754,-2.2812 6.062,-3.9726 9.851,-5.0117 3.848,-1.0586 8.196,-1.6016 12.91,-1.6016 4.727,0 9.024,0.543 12.793,1.6016 3.711,1.0391 6.875,2.7187 9.415,4.9883 2.531,2.2617 4.523,5.207 5.91,8.7578 1.394,3.5625 2.109,7.9531 2.109,13.0547 V 130.289 H 352.836 V 84.8477 c 0,-4.6211 -1.141,-8.3633 -3.406,-11.1055 -2.317,-2.793 -5.996,-4.2109 -10.95,-4.2109 -4.851,0 -8.503,1.4101 -10.859,4.2031 -2.312,2.7344 -3.484,6.4765 -3.484,11.1133 v 45.4413 h -16.953">
   </path>
   <path id="path22" style="fill:#231f20;fill-opacity:1;fill-rule:nonzero;stroke:none" d="m 258.297,56.9219 v 59.6641 h -19.934 v 13.703 h 56.934 v -6.566 c 0,-3.938 -3.203,-7.137 -7.129,-7.137 H 275.25 V 56.9219 h -16.953">
   </path>
   <path id="path24" style="fill:#231f20;fill-opacity:1;fill-rule:nonzero;stroke:none" d="M 530.727,56.9336 V 130.297 H 547.68 V 56.9336 h -16.953">
   </path>
   <path id="path26" style="fill:#231f20;fill-opacity:1;fill-rule:nonzero;stroke:none" d="m 474.273,91.1367 0.575,-0.7265 21.652,-27.9024 c 2.754,-3.5586 6.914,-5.5937 11.406,-5.5937 h 13.504 l -31.023,39.4648 -0.461,0.5742 0.461,0.586 25.508,32.7769 h -17.649 l -23.387,-31.6207 -0.586,-0.7617 -0.011,1.3242 V 130.316 H 457.309 V 56.9531 h 16.953 v 32.8828 l 0.011,1.3008">
   </path>
   <path id="path28" style="fill:#231f20;fill-opacity:1;fill-rule:nonzero;stroke:none" d="m 401.313,96.7148 h 9.882 c 3.555,0 6.27,0.9766 8.059,2.8985 1.766,1.9027 2.664,4.3747 2.664,7.3437 0,3.043 -0.879,5.555 -2.598,7.453 -1.746,1.934 -4.48,2.91 -8.125,2.91 h -9.882 z m 33.898,-39.7695 c -5.02,0 -9.758,2.6641 -12.356,6.957 l -13.183,21.7774 h -8.359 V 56.9453 h -16.942 v 73.3437 h 30.203 c 7.766,0 13.84,-2.027 18.067,-6.019 4.211,-3.985 6.347,-9.45 6.347,-16.227 0,-3.441 -0.918,-6.93 -2.722,-10.3672 -1.789,-3.3789 -4.953,-6.1406 -9.414,-8.2188 l -0.977,-0.4531 20.574,-32.0586 h -11.238">
   </path>
   <path id="path30" style="fill:#231f20;fill-opacity:1;fill-rule:nonzero;stroke:none" d="m 561.598,60.0469 v 14.0664 c 5.398,-2.4844 12.351,-4.9688 19.539,-4.9688 8.273,0 12.472,2.8399 12.472,8.2774 0,6.3828 -5.636,7.0859 -16.906,11.9336 -7.676,3.4297 -14.988,8.7461 -14.988,21.0355 0,14.297 10.906,21.035 26.015,21.035 8.036,0 14.864,-1.891 18.7,-3.309 V 114.41 c -3.836,1.774 -10.664,3.903 -17.5,3.903 -7.43,0 -10.907,-2.723 -10.907,-7.45 0,-4.961 4.2,-6.504 11.747,-9.336 9.707,-4.8434 20.976,-6.9723 20.976,-23.5153 0,-14.3008 -11.387,-22.1015 -26.609,-22.1015 -9.356,0 -16.789,1.6523 -22.539,4.1367">
   </path>
   <path id="path32" style="fill:#231f20;fill-opacity:1;fill-rule:nonzero;stroke:none" d="m 1085.25,56.9336 v 73.3634 h 45.94 v -6.652 c 0,-3.883 -3.17,-7.047 -7.05,-7.047 H 1102.2 V 100.82 h 24.64 V 88.5742 H 1102.2 V 70.625 h 28.99 V 56.9336 h -45.94">
   </path>
   <path id="path34" style="fill:#231f20;fill-opacity:1;fill-rule:nonzero;stroke:none" d="m 917.641,56.9453 v 73.3597 h 8.242 c 4.805,0 8.711,-3.914 8.711,-8.711 V 70.1563 h 27.051 v -13.211 h -44.004">
   </path>
   <path id="path36" style="fill:#231f20;fill-opacity:1;fill-rule:nonzero;stroke:none" d="m 812.699,56.9492 v 73.3168 h 16.953 V 56.9492 h -16.953">
   </path>
   <path id="path38" style="fill:#231f20;fill-opacity:1;fill-rule:nonzero;stroke:none" d="m 862.145,96.7227 h 9.882 c 3.563,0 6.27,0.9765 8.067,2.8984 1.765,1.9019 2.656,4.3749 2.656,7.3479 0,3.043 -0.871,5.547 -2.598,7.449 -1.75,1.934 -4.484,2.91 -8.125,2.91 h -9.882 z m 33.906,-39.7735 c -5.02,0 -9.758,2.6719 -12.356,6.961 l -13.191,21.7773 h -8.359 V 56.9492 h -16.946 v 73.3478 h 30.215 c 7.754,0 13.84,-2.024 18.059,-6.02 4.218,-3.988 6.347,-9.449 6.347,-16.226 0,-3.446 -0.91,-6.934 -2.726,-10.3713 -1.785,-3.3711 -4.949,-6.1367 -9.403,-8.2109 l -0.976,-0.4532 20.574,-32.0664 h -11.238">
   </path>
   <path id="path40" style="fill:#231f20;fill-opacity:1;fill-rule:nonzero;stroke:none" d="m 754.438,83.668 6.652,18.543 c 1.484,4.172 2.969,8.57 3.945,11.816 h 0.254 c 0.859,-3.359 2.344,-7.531 3.816,-11.816 l 6.418,-18.543 z m 20.949,46.637 H 755.914 L 728.246,56.9453 h 12.219 c 3.094,0 5.828,1.9766 6.805,4.9141 l 2.843,8.6094 h 29.754 l 4.348,-13.5235 h 18.367 l -27.195,73.3597">
   </path>
   <path id="path42" style="fill:#231f20;fill-opacity:1;fill-rule:nonzero;stroke:none" d="m 1144.8,60.0469 v 14.0586 c 5.39,-2.4766 12.34,-4.961 19.54,-4.961 8.27,0 12.46,2.8399 12.46,8.2735 0,6.3828 -5.63,7.0898 -16.89,11.9336 -7.68,3.4257 -14.99,8.75 -14.99,21.0394 0,14.297 10.9,21.031 26.01,21.031 8.03,0 14.87,-1.887 18.7,-3.305 V 114.41 c -3.83,1.766 -10.67,3.895 -17.5,3.895 -7.43,0 -10.9,-2.719 -10.9,-7.442 0,-4.965 4.18,-6.504 11.74,-9.336 9.71,-4.8473 20.98,-6.9762 20.98,-23.5192 0,-14.2969 -11.39,-22.0976 -26.61,-22.0976 -9.36,0 -16.79,1.6523 -22.54,4.1367">
   </path>
   <path id="path44" style="fill:#231f20;fill-opacity:1;fill-rule:nonzero;stroke:none" d="m 1005.03,130.289 h 10.51 c 4.99,0 9.62,-2.574 12.26,-6.809 l 20.46,-32.8706 c 2.31,-3.6485 5,-8.4727 6.58,-11.8867 h 0.36 c -0.24,3.2929 -0.36,7.8906 -0.36,11.1836 v 40.3827 h 14.85 V 56.9336 h -18.58 l -24.89,39.6836 c -2.31,3.6488 -4.75,8.0078 -6.46,11.3048 h -0.23 c 0.11,-3.18 0.36,-6.949 0.36,-10.4806 V 56.9336 h -14.86 v 73.3554">
   </path>
   <path id="path46" style="fill:#231f20;fill-opacity:1;fill-rule:nonzero;stroke:none" d="m 972.555,56.9492 v 73.3168 h 16.953 V 56.9492 h -16.953">
   </path>
  </g>
 </g>
</svg>