<?xml version="1.0" encoding="utf-8"?>
<svg xmlns="http://www.w3.org/2000/svg" viewBox="544.3568 129.4293 313.259 105.775" width="313.259px" height="105.775px"><g id="Layer_1" transform="matrix(1, 0, 0, 1, 34.319644927978516, 153.33132934570312)"><g transform="matrix(1, 0, 0, 1, 493.296204, -36.326996)"><g><g><path class="st0" d="M70.7,39.2l-35.4,70.8c-0.2,0.4-0.5,0.6-1,0.6H29c-0.8,0-1.3-0.8-1-1.5l14.4-28.7c0.2-0.4,0.5-0.6,1-0.6    l2.5,0c0.4,0,0.8-0.2,1-0.6l2.8-5.6c0.4-0.7-0.2-1.5-1-1.5h-0.4c-0.8,0-1.3-0.8-1-1.5l21.5-43c0.3-0.7,1.3-0.7,1.7,0l20.1,40.1    c0.2,0.4,0.5,0.6,0.9,0.6l5.3,0c0.8,0,1.3-0.8,1-1.5L73.5,18l0,0l-2.3-4.6c-0.6-1.3-2.5-1.3-3.1,0L65.8,18l0,0l-46.3,92.5l0,0    l-2.5,4.9c-0.8,1.6,0.4,2.8,1.6,2.8h4.7h7.7h5.8c1.6,0,2.4-1,2.8-1.8l35.5-70.9c0.1-0.3,0.1-0.7,0-1l-2.7-5.3    C72.2,38.4,71.1,38.4,70.7,39.2z" style="fill: rgb(255, 255, 255);"/><path class="st0" d="M136.1,118.2c1.4,0,2.3-1.4,1.6-2.7l-21.8-43.6l0,0h0L86.7,13.4c-0.6-1.3-2.5-1.3-3.1,0L81.2,18l0,0    l-1.7,3.4c-0.1,0.3-0.1,0.7,0,1l2.7,5.3c0.4,0.8,1.5,0.8,1.9,0l0.1-0.3c0.3-0.7,1.3-0.7,1.7,0l21.5,43c0.4,0.7-0.2,1.5-1,1.5h-40    c-0.4,0-0.8,0.2-1,0.6l-2.8,5.6c-0.4,0.7,0.2,1.5,1,1.5l47.7,0c0.4,0,0.8,0.2,1,0.6l14.4,28.7c0.4,0.7-0.2,1.5-1,1.5l-5.3,0    c-0.4,0-0.8-0.2-1-0.6l-12.9-25.8c-0.2-0.4-0.5-0.6-1-0.6h-5.3c-0.8,0-1.3,0.8-1,1.5l15.8,31.5c0.5,1,1.5,1.6,2.6,1.6H136.1z" style="fill: rgb(255, 255, 255);"/></g></g><g><g><path class="st0" d="M161.7,72.6c0.2,0.2,0.3,0.5,0.5,0.9l8.1,20.8c0,0.1,0,0.1,0,0.2c0,0.2-0.1,0.5-0.3,0.6    c-0.2,0.2-0.4,0.3-0.6,0.3h-2.4c-0.7,0-1.1-0.3-1.3-0.8l-1.4-3.7H154l-1.4,3.7c-0.2,0.5-0.6,0.8-1.3,0.8h-2.4    c-0.2,0-0.5-0.1-0.6-0.3c-0.2-0.2-0.3-0.4-0.3-0.6c0-0.1,0-0.2,0-0.2l8.1-20.8c0.1-0.4,0.3-0.7,0.5-0.9c0.2-0.2,0.4-0.3,0.8-0.3    h3.6C161.3,72.3,161.6,72.4,161.7,72.6z M159.2,77.4l-3.6,9.4h7.2L159.2,77.4z" style="fill: rgb(255, 255, 255);"/><path class="st0" d="M189.1,72.6c0.2,0.2,0.3,0.5,0.5,0.9l8.1,20.8c0,0.1,0,0.1,0,0.2c0,0.2-0.1,0.5-0.3,0.6    c-0.2,0.2-0.4,0.3-0.6,0.3h-2.4c-0.7,0-1.1-0.3-1.3-0.8l-1.4-3.7h-10.4l-1.4,3.7c-0.2,0.5-0.6,0.8-1.3,0.8h-2.4    c-0.2,0-0.5-0.1-0.6-0.3c-0.2-0.2-0.3-0.4-0.3-0.6c0-0.1,0-0.2,0-0.2l8.1-20.8c0.1-0.4,0.3-0.7,0.5-0.9c0.2-0.2,0.4-0.3,0.8-0.3    h3.6C188.7,72.3,188.9,72.4,189.1,72.6z M186.5,77.4l-3.6,9.4h7.2L186.5,77.4z" style="fill: rgb(255, 255, 255);"/><path class="st0" d="M222.9,83.8c0,1.1,0,1.9-0.1,2.4c-0.2,2.9-1.1,5.1-2.7,6.7c-1.6,1.6-3.9,2.4-7,2.4h-8.3    c-0.2,0-0.4-0.1-0.6-0.3c-0.2-0.2-0.3-0.4-0.3-0.6V73.2c0-0.2,0.1-0.4,0.3-0.6c0.2-0.2,0.4-0.3,0.6-0.3h8.1    c3.1,0,5.5,0.8,7.1,2.4c1.6,1.6,2.5,3.8,2.7,6.7C222.9,81.9,222.9,82.7,222.9,83.8z M208.4,76.4v14.8h4.6c1.7,0,3-0.4,3.9-1.3    c0.9-0.9,1.4-2.1,1.5-3.6c0-0.5,0.1-1.4,0.1-2.4c0-1.1,0-1.9-0.1-2.4c-0.1-1.5-0.6-2.7-1.5-3.6c-0.9-0.9-2.3-1.3-4.1-1.3H208.4z" style="fill: rgb(255, 255, 255);"/><path class="st0" d="M229.7,95.1c-0.2-0.2-0.3-0.4-0.3-0.6V73.2c0-0.2,0.1-0.4,0.3-0.6c0.2-0.2,0.4-0.3,0.6-0.3h2.7    c0.2,0,0.4,0.1,0.6,0.3c0.2,0.2,0.3,0.4,0.3,0.6v21.3c0,0.2-0.1,0.5-0.3,0.6c-0.2,0.2-0.4,0.3-0.6,0.3h-2.7    C230.1,95.3,229.9,95.3,229.7,95.1z" style="fill: rgb(255, 255, 255);"/><path class="st0" d="M260.5,83.8c0,1.1,0,1.9-0.1,2.4c-0.2,2.9-1.1,5.1-2.7,6.7c-1.6,1.6-3.9,2.4-7,2.4h-8.3    c-0.2,0-0.4-0.1-0.6-0.3c-0.2-0.2-0.3-0.4-0.3-0.6V73.2c0-0.2,0.1-0.4,0.3-0.6c0.2-0.2,0.4-0.3,0.6-0.3h8.1    c3.1,0,5.5,0.8,7.1,2.4c1.6,1.6,2.5,3.8,2.7,6.7C260.4,81.9,260.5,82.7,260.5,83.8z M246,76.4v14.8h4.6c1.7,0,3-0.4,3.9-1.3    c0.9-0.9,1.4-2.1,1.5-3.6c0-0.5,0.1-1.4,0.1-2.4c0-1.1,0-1.9-0.1-2.4c-0.1-1.5-0.6-2.7-1.5-3.6c-0.9-0.9-2.3-1.3-4.1-1.3H246z" style="fill: rgb(255, 255, 255);"/><path class="st0" d="M270.4,91.2h10.9c0.2,0,0.4,0.1,0.6,0.3c0.2,0.2,0.3,0.4,0.3,0.6v2.3c0,0.2-0.1,0.5-0.3,0.6    c-0.2,0.2-0.4,0.3-0.6,0.3h-14.5c-0.2,0-0.4-0.1-0.6-0.3c-0.2-0.2-0.3-0.4-0.3-0.6V73.2c0-0.2,0.1-0.4,0.3-0.6    c0.2-0.2,0.4-0.3,0.6-0.3h14.2c0.2,0,0.4,0.1,0.6,0.3c0.2,0.2,0.3,0.4,0.3,0.6v2.3c0,0.2-0.1,0.5-0.3,0.6    c-0.2,0.2-0.4,0.3-0.6,0.3h-10.6v5.2h9.9c0.2,0,0.4,0.1,0.6,0.3c0.2,0.2,0.3,0.4,0.3,0.6v2.3c0,0.2-0.1,0.5-0.3,0.6    c-0.2,0.2-0.4,0.3-0.6,0.3h-9.9V91.2z" style="fill: rgb(255, 255, 255);"/><path class="st0" d="M305,78.7c-0.2,0.2-0.4,0.2-0.7,0.2H302c-0.4,0-0.6-0.1-0.8-0.2c-0.2-0.1-0.4-0.3-0.5-0.6    c-0.4-0.6-0.9-1.1-1.6-1.5c-0.7-0.4-1.7-0.6-2.9-0.6c-1.2,0-2.2,0.2-3,0.7c-0.8,0.5-1.2,1.1-1.2,1.9c0,0.7,0.2,1.2,0.6,1.5    c0.4,0.4,1,0.7,1.8,0.9c0.8,0.2,2.1,0.6,4,1c2.7,0.6,4.6,1.4,5.8,2.4c1.2,1,1.8,2.4,1.8,4.2c0,1.3-0.4,2.5-1.2,3.5    c-0.8,1-1.9,1.9-3.3,2.5c-1.4,0.6-3.1,0.9-5.1,0.9c-1.6,0-3.2-0.3-4.6-0.8c-1.4-0.5-2.6-1.3-3.5-2.3c-0.9-1-1.3-2.1-1.4-3.3    c0-0.3,0.1-0.5,0.2-0.6c0.2-0.2,0.4-0.2,0.7-0.2h2.3c0.4,0,0.6,0.1,0.8,0.2c0.2,0.1,0.4,0.3,0.5,0.6c0.4,0.7,0.9,1.3,1.6,1.7    c0.7,0.4,1.8,0.6,3.3,0.6c1.4,0,2.7-0.2,3.6-0.7c1-0.5,1.4-1.2,1.4-2.1c0-0.5-0.2-1-0.6-1.3c-0.4-0.3-0.9-0.6-1.6-0.8    c-0.7-0.2-1.7-0.5-3.1-0.8c-0.5-0.1-1.3-0.3-2.1-0.5c-2.3-0.6-4-1.3-5-2.3s-1.5-2.4-1.5-4.3c0-1.3,0.4-2.5,1.1-3.5    s1.8-1.8,3.1-2.4c1.3-0.6,2.8-0.9,4.4-0.9c1.8,0,3.4,0.3,4.8,0.9c1.3,0.6,2.4,1.4,3.1,2.4c0.7,0.9,1.1,1.9,1.2,2.8    C305.2,78.3,305.1,78.5,305,78.7z" style="fill: rgb(255, 255, 255);"/><path class="st0" d="M329,78.7c-0.2,0.2-0.4,0.2-0.7,0.2h-2.3c-0.4,0-0.6-0.1-0.8-0.2c-0.2-0.1-0.4-0.3-0.5-0.6    c-0.4-0.6-0.9-1.1-1.6-1.5c-0.7-0.4-1.7-0.6-2.9-0.6c-1.2,0-2.2,0.2-3,0.7c-0.8,0.5-1.2,1.1-1.2,1.9c0,0.7,0.2,1.2,0.6,1.5    c0.4,0.4,1,0.7,1.8,0.9c0.8,0.2,2.1,0.6,4,1c2.7,0.6,4.6,1.4,5.8,2.4c1.2,1,1.8,2.4,1.8,4.2c0,1.3-0.4,2.5-1.2,3.5    c-0.8,1-1.9,1.9-3.3,2.5c-1.4,0.6-3.1,0.9-5.1,0.9c-1.6,0-3.2-0.3-4.6-0.8c-1.4-0.5-2.6-1.3-3.5-2.3c-0.9-1-1.3-2.1-1.4-3.3    c0-0.3,0.1-0.5,0.2-0.6c0.2-0.2,0.4-0.2,0.7-0.2h2.3c0.4,0,0.6,0.1,0.8,0.2c0.2,0.1,0.4,0.3,0.5,0.6c0.4,0.7,0.9,1.3,1.6,1.7    c0.7,0.4,1.8,0.6,3.3,0.6c1.4,0,2.7-0.2,3.6-0.7c1-0.5,1.4-1.2,1.4-2.1c0-0.5-0.2-1-0.6-1.3c-0.4-0.3-0.9-0.6-1.6-0.8    c-0.7-0.2-1.7-0.5-3.1-0.8c-0.5-0.1-1.3-0.3-2.1-0.5c-2.3-0.6-4-1.3-5-2.3c-1-1-1.5-2.4-1.5-4.3c0-1.3,0.4-2.5,1.1-3.5    c0.8-1,1.8-1.8,3.1-2.4c1.3-0.6,2.8-0.9,4.4-0.9c1.8,0,3.4,0.3,4.8,0.9c1.3,0.6,2.4,1.4,3.1,2.4c0.7,0.9,1.1,1.9,1.2,2.8    C329.3,78.3,329.2,78.5,329,78.7z" style="fill: rgb(255, 255, 255);"/></g></g></g></g></svg>