<?xml version="1.0" encoding="utf-8"?>
<svg xmlns="http://www.w3.org/2000/svg" viewBox="722.799 38.866 147.7999 88.4" width="147.8px" height="88.4px" preserveAspectRatio="none"><g id="svg-3"><g transform="matrix(1, 0, 0, 1, 712.598877, 25.066)"><path class="st0" d="M47.1,97.9c0.4,0.5,1.1,0.7,2.1,0.7c0.9,0,1.6-0.2,2-0.5c0.4-0.3,0.7-0.8,0.9-1.3c0.1-0.3,0.2-0.4,0.3-0.5   c0.1-0.1,0.3-0.1,0.5-0.1h3c0.1,0,0.3,0,0.3,0.1c0.1,0.1,0.1,0.2,0.1,0.4c0,1-0.3,1.9-1,2.8c-0.6,0.9-1.5,1.5-2.5,2   c-1.1,0.5-2.3,0.7-3.5,0.7c-1.4,0-2.6-0.3-3.7-0.8c-1-0.5-1.8-1.3-2.4-2.2c-0.6-0.9-0.9-2-0.9-3.1c0-0.7,0-1.3,0-1.8   c0-0.6,0-1.3,0-2.2c0-1.1,0.4-2.2,0.9-3.1c0.6-0.9,1.4-1.7,2.4-2.2c1-0.5,2.3-0.8,3.7-0.8c1.3,0,2.5,0.2,3.5,0.7   c1.1,0.5,1.9,1.2,2.5,2c0.6,0.9,0.9,1.8,1,2.8c0,0.1,0,0.3-0.1,0.4c-0.1,0.1-0.2,0.1-0.3,0.1h-3c-0.2,0-0.4,0-0.5-0.1   c-0.1-0.1-0.2-0.3-0.3-0.5c-0.2-0.5-0.5-0.9-0.9-1.3c-0.4-0.3-1.1-0.5-2-0.5c-0.9,0-1.6,0.2-2.1,0.7s-0.7,1.1-0.8,1.9   c0,0.5,0,1.1,0,1.9c0,0.7,0,1.4,0,1.9C46.4,96.8,46.7,97.5,47.1,97.9z" style="fill: rgb(255, 255, 255);"/><path class="st0" d="M76.5,86.4c0.1,0.1,0.2,0.3,0.2,0.4v9c0,1.4-0.3,2.5-0.9,3.5c-0.6,1-1.4,1.7-2.4,2.2c-1,0.5-2.2,0.7-3.6,0.7   c-1.4,0-2.6-0.2-3.6-0.7c-1-0.5-1.8-1.2-2.4-2.2c-0.6-1-0.8-2.1-0.8-3.5v-9c0-0.2,0.1-0.3,0.2-0.4c0.1-0.1,0.3-0.2,0.4-0.2h3   c0.2,0,0.3,0.1,0.4,0.2c0.1,0.1,0.2,0.3,0.2,0.4v8.9c0,0.9,0.2,1.6,0.7,2.1c0.5,0.5,1.1,0.8,2,0.8s1.5-0.3,2-0.8s0.7-1.2,0.7-2.1   v-8.9c0-0.2,0.1-0.3,0.2-0.4c0.1-0.1,0.3-0.2,0.4-0.2h3C76.3,86.2,76.4,86.3,76.5,86.4z" style="fill: rgb(255, 255, 255);"/><path class="st0" d="M95.7,87.5c1.1,0.9,1.7,2.2,1.7,3.9c0,2.2-0.9,3.7-2.7,4.5l2.8,5.4c0,0.1,0.1,0.2,0.1,0.2c0,0.1,0,0.3-0.1,0.4   c-0.1,0.1-0.2,0.1-0.4,0.1h-3.1c-0.3,0-0.5-0.1-0.6-0.2s-0.2-0.3-0.3-0.4l-2.5-4.8h-2.1v4.8c0,0.2-0.1,0.3-0.2,0.4   c-0.1,0.1-0.3,0.2-0.4,0.2h-3c-0.2,0-0.3-0.1-0.4-0.2c-0.1-0.1-0.2-0.3-0.2-0.4V86.8c0-0.2,0.1-0.3,0.2-0.4   c0.1-0.1,0.3-0.2,0.4-0.2H91C93,86.2,94.5,86.7,95.7,87.5z M91,93.1c1.5,0,2.2-0.6,2.2-1.7s-0.7-1.7-2.2-1.7h-2.6v3.3H91z" style="fill: rgb(255, 255, 255);"/><path class="st0" d="M116.8,90.8c-0.1,0.1-0.2,0.1-0.3,0.1h-3c-0.2,0-0.4,0-0.5-0.1c-0.1-0.1-0.3-0.1-0.4-0.3c0,0-0.1-0.1-0.3-0.3   c-0.2-0.2-0.4-0.3-0.8-0.5c-0.4-0.1-0.8-0.2-1.2-0.2c-0.6,0-1.2,0.1-1.6,0.3c-0.4,0.2-0.6,0.5-0.6,0.9c0,0.3,0.1,0.5,0.4,0.7   c0.3,0.2,0.7,0.3,1.2,0.5c0.5,0.1,1.5,0.3,2.8,0.6c1.7,0.3,3,0.9,3.8,1.6s1.2,1.8,1.2,3.2c0,1-0.3,1.9-0.9,2.6   c-0.6,0.7-1.4,1.3-2.5,1.7s-2.3,0.6-3.6,0.6c-1.3,0-2.5-0.2-3.5-0.7c-1.1-0.5-1.9-1-2.5-1.8c-0.6-0.7-0.9-1.5-1-2.2   c0-0.1,0-0.3,0.1-0.3c0.1-0.1,0.2-0.1,0.3-0.1h3c0.3,0,0.6,0.1,0.9,0.3c0,0,0.2,0.2,0.4,0.4c0.2,0.2,0.5,0.4,0.9,0.6   c0.4,0.2,0.9,0.3,1.4,0.3c1.9,0,2.8-0.4,2.8-1.2c0-0.3-0.1-0.5-0.4-0.6s-0.6-0.3-1.1-0.4c-0.5-0.1-1.3-0.3-2.3-0.5l-1-0.2   c-1.5-0.3-2.7-0.9-3.4-1.7c-0.7-0.8-1.1-1.8-1.1-3.1c0-0.9,0.3-1.7,0.8-2.4s1.3-1.3,2.3-1.8c1-0.4,2.1-0.7,3.4-0.7   c1.2,0,2.3,0.2,3.3,0.7c1,0.5,1.8,1,2.4,1.7c0.6,0.7,0.9,1.4,0.9,2C117,90.6,116.9,90.7,116.8,90.8z" style="fill: rgb(255, 255, 255);"/><path class="st0" d="M134.5,86.8c1,0.5,1.8,1.3,2.4,2.2c0.6,0.9,0.9,2,0.9,3.1c0,0.4,0,1.1,0,2c0,0.9,0,1.6,0,2   c-0.1,1.1-0.4,2.2-0.9,3.1c-0.6,0.9-1.4,1.7-2.4,2.2c-1,0.5-2.3,0.8-3.7,0.8s-2.7-0.3-3.7-0.8c-1-0.5-1.8-1.3-2.4-2.2   c-0.6-0.9-0.9-2-0.9-3.1c0-0.8,0-1.5,0-2s0-1.2,0-2c0.1-1.1,0.4-2.2,0.9-3.1c0.6-0.9,1.4-1.7,2.4-2.2c1-0.5,2.3-0.8,3.7-0.8   S133.4,86.3,134.5,86.8z M132.8,90.3c-0.5-0.5-1.2-0.7-2-0.7s-1.6,0.2-2,0.7s-0.8,1.1-0.8,1.9c0,0.5-0.1,1.1-0.1,1.9   c0,0.7,0,1.4,0.1,1.9c0.1,0.8,0.4,1.4,0.8,1.9s1.2,0.7,2,0.7s1.6-0.2,2-0.7s0.8-1.1,0.8-1.9c0-0.5,0.1-1.2,0.1-1.9   c0-0.8,0-1.4-0.1-1.9C133.5,91.4,133.3,90.8,132.8,90.3z" style="fill: rgb(255, 255, 255);"/><path class="st0" d="M157.3,90.8c-0.1,0.1-0.2,0.1-0.3,0.1h-3c-0.2,0-0.4,0-0.5-0.1c-0.1-0.1-0.3-0.1-0.4-0.3c0,0-0.1-0.1-0.3-0.3   c-0.2-0.2-0.4-0.3-0.8-0.5c-0.4-0.1-0.8-0.2-1.2-0.2c-0.6,0-1.2,0.1-1.6,0.3c-0.4,0.2-0.6,0.5-0.6,0.9c0,0.3,0.1,0.5,0.4,0.7   c0.3,0.2,0.7,0.3,1.2,0.5c0.5,0.1,1.5,0.3,2.8,0.6c1.7,0.3,3,0.9,3.8,1.6s1.2,1.8,1.2,3.2c0,1-0.3,1.9-0.9,2.6   c-0.6,0.7-1.4,1.3-2.5,1.7s-2.3,0.6-3.6,0.6c-1.3,0-2.5-0.2-3.5-0.7c-1.1-0.5-1.9-1-2.5-1.8c-0.6-0.7-0.9-1.5-1-2.2   c0-0.1,0-0.3,0.1-0.3c0.1-0.1,0.2-0.1,0.3-0.1h3c0.3,0,0.6,0.1,0.9,0.3c0,0,0.2,0.2,0.4,0.4c0.2,0.2,0.5,0.4,0.9,0.6   c0.4,0.2,0.9,0.3,1.4,0.3c1.9,0,2.8-0.4,2.8-1.2c0-0.3-0.1-0.5-0.4-0.6s-0.6-0.3-1.1-0.4c-0.5-0.1-1.3-0.3-2.3-0.5l-1-0.2   c-1.5-0.3-2.7-0.9-3.4-1.7c-0.7-0.8-1.1-1.8-1.1-3.1c0-0.9,0.3-1.7,0.8-2.4s1.3-1.3,2.3-1.8c1-0.4,2.1-0.7,3.4-0.7   c1.2,0,2.3,0.2,3.3,0.7c1,0.5,1.8,1,2.4,1.7c0.6,0.7,0.9,1.4,0.9,2C157.5,90.6,157.4,90.7,157.3,90.8z" style="fill: rgb(255, 255, 255);"/></g><polygon class="st0" points="863.199 96.866 750.499 96.866 722.799 38.866 835.499 38.866" style="fill: rgb(255, 255, 255); stroke-width: 1;"/></g></svg>