<?xml version="1.0" encoding="utf-8"?>
<svg xmlns="http://www.w3.org/2000/svg" viewBox="619.5213 454.7366 142.6 55.1" width="142.6px" height="55.1px"><g id="svg-2"><g transform="matrix(1, 0, 0, 1, 605.321289, 422.836639)"><path class="st0" d="M37.7,47.7c-0.8,3.1-2.2,5.5-4.2,7.1c-2,1.7-4.9,2.5-8.5,2.5h-10c-0.3,0-0.5-0.1-0.6-0.3   c-0.2-0.2-0.2-0.4-0.2-0.7l4.9-23c0-0.3,0.2-0.5,0.4-0.7c0.2-0.2,0.5-0.3,0.7-0.3h9.1c1.8,0,3.4,0.4,4.8,1.1   c1.5,0.7,2.6,1.8,3.5,3.1c0.9,1.3,1.3,2.8,1.3,4.5c0,0.6,0,1.1-0.1,1.6C38.5,44.1,38.1,45.8,37.7,47.7z M24.6,38l-2.8,13.5h3.8   c3,0,4.8-1.4,5.5-4.1c0.4-1.8,0.8-3.5,1.1-5.3c0-0.4,0.1-0.7,0.1-0.9c0-2.1-1.4-3.2-4.1-3.2H24.6z" style="fill: rgb(255, 255, 255);"/><path class="st0" d="M49.6,51.6h11.3c0.3,0,0.5,0.1,0.6,0.3c0.1,0.2,0.2,0.4,0.1,0.7l-0.8,3.8c0,0.3-0.2,0.5-0.4,0.7   c-0.2,0.2-0.5,0.3-0.7,0.3H42.7c-0.3,0-0.5-0.1-0.6-0.3c-0.2-0.2-0.2-0.4-0.2-0.7l4.9-23c0-0.3,0.2-0.5,0.4-0.7   c0.2-0.2,0.5-0.3,0.7-0.3h16.6c0.3,0,0.5,0.1,0.6,0.3c0.2,0.2,0.2,0.4,0.2,0.7l-0.8,3.8c0,0.3-0.2,0.5-0.4,0.7   c-0.2,0.2-0.5,0.3-0.7,0.3h-11l-0.8,3.8h10.2c0.3,0,0.5,0.1,0.6,0.3c0.2,0.2,0.2,0.4,0.2,0.7l-0.8,3.8c0,0.3-0.2,0.5-0.4,0.7   c-0.2,0.2-0.5,0.3-0.7,0.3H50.4L49.6,51.6z" style="fill: rgb(255, 255, 255);"/><path class="st0" d="M77,44.5l-2.5,11.8c0,0.3-0.2,0.5-0.4,0.7c-0.2,0.2-0.5,0.3-0.7,0.3h-4.7c-0.3,0-0.5-0.1-0.6-0.3   c-0.2-0.2-0.2-0.4-0.2-0.7l4.9-23c0-0.3,0.2-0.5,0.4-0.7c0.2-0.2,0.5-0.3,0.7-0.3h4.3c0.4,0,0.7,0.1,0.9,0.3   c0.2,0.2,0.3,0.4,0.4,0.6l3.1,9.9l7.2-9.9c0.5-0.6,1-1,1.7-1h5.3c0.3,0,0.5,0.1,0.6,0.3c0.2,0.2,0.2,0.4,0.2,0.7l-4.9,23   c0,0.3-0.2,0.5-0.4,0.7c-0.2,0.2-0.5,0.3-0.7,0.3h-4.7c-0.3,0-0.5-0.1-0.6-0.3c-0.2-0.2-0.2-0.4-0.2-0.7l2.5-11.8l-4.1,5.9   c-0.5,0.6-1,0.9-1.5,0.9h-3.1c-0.6,0-0.9-0.3-1.1-0.9L77,44.5z" style="fill: rgb(255, 255, 255);"/><path class="st0" d="M122.2,33c1.4,0.7,2.6,1.7,3.4,3c0.8,1.3,1.2,2.7,1.2,4.2c0,0.5,0,1-0.1,1.4c-0.3,1.9-0.8,4-1.4,6.3   c-0.8,2.9-2.2,5.3-4.3,7c-2.1,1.8-4.9,2.6-8.5,2.6c-1.9,0-3.5-0.4-5-1.1c-1.4-0.7-2.6-1.7-3.4-3c-0.8-1.3-1.2-2.7-1.2-4.2   c0-0.5,0-0.9,0.1-1.4c0.3-1.8,0.7-3.9,1.4-6.3c0.8-2.9,2.2-5.3,4.3-7c2.1-1.8,4.9-2.6,8.5-2.6C119.1,32,120.8,32.3,122.2,33z    M119.2,38.6c-0.6-0.6-1.5-0.9-2.8-0.9c-1.4,0-2.6,0.4-3.5,1.1c-0.9,0.7-1.5,1.8-1.9,3c-0.2,0.8-0.5,1.8-0.7,2.9   c-0.2,1.2-0.4,2.2-0.6,3c0,0.2,0,0.4,0,0.7c0,1,0.3,1.9,0.9,2.5c0.6,0.6,1.5,0.9,2.8,0.9c1.4,0,2.6-0.4,3.5-1.1   c0.9-0.7,1.6-1.8,1.9-3c0.3-1.1,0.6-2.3,0.9-3.7c0.3-1.4,0.4-2.4,0.4-3C120.1,40,119.8,39.2,119.2,38.6z" style="fill: rgb(255, 255, 255);"/><path class="st0" d="M70,62.3c0.2,0.2,0.2,0.4,0.2,0.7l-0.8,3.8c0,0.3-0.2,0.5-0.4,0.7c-0.2,0.2-0.5,0.3-0.7,0.3h-6.3L58,85.9   c0,0.3-0.2,0.5-0.4,0.7c-0.2,0.2-0.5,0.3-0.7,0.3h-4.7c-0.3,0-0.5-0.1-0.6-0.3c-0.2-0.2-0.2-0.4-0.2-0.7l3.9-18.3H49   c-0.3,0-0.5-0.1-0.6-0.3c-0.1-0.2-0.2-0.4-0.1-0.7l0.8-3.8c0-0.3,0.2-0.5,0.4-0.7c0.2-0.2,0.5-0.3,0.7-0.3h19.1   C69.6,62,69.8,62.1,70,62.3z" style="fill: rgb(255, 255, 255);"/><path class="st0" d="M79,81.2h11.3c0.3,0,0.5,0.1,0.6,0.3c0.1,0.2,0.2,0.4,0.1,0.7l-0.8,3.8c0,0.3-0.2,0.5-0.4,0.7   c-0.2,0.2-0.5,0.3-0.7,0.3H72.2c-0.3,0-0.5-0.1-0.6-0.3c-0.2-0.2-0.2-0.4-0.2-0.7l4.9-23c0-0.3,0.2-0.5,0.4-0.7   c0.2-0.2,0.5-0.3,0.7-0.3h16.6c0.3,0,0.5,0.1,0.6,0.3c0.2,0.2,0.2,0.4,0.2,0.7L94,66.7c0,0.3-0.2,0.5-0.4,0.7   c-0.2,0.2-0.5,0.3-0.7,0.3h-11l-0.8,3.8h10.2c0.3,0,0.5,0.1,0.6,0.3c0.2,0.2,0.2,0.4,0.2,0.7l-0.8,3.8c0,0.3-0.2,0.5-0.4,0.7   c-0.2,0.2-0.5,0.3-0.7,0.3H79.8L79,81.2z" style="fill: rgb(255, 255, 255);"/><path class="st0" d="M120.7,85.6c0.1,0.9-0.2,1.3-0.9,1.3h-4.3c-0.4,0-0.7-0.1-0.9-0.3c-0.2-0.2-0.3-0.4-0.3-0.6l-0.4-3h-9.5   l-1.6,3c-0.1,0.2-0.3,0.4-0.6,0.6c-0.3,0.2-0.6,0.3-1,0.3h-5c-0.4,0-0.6-0.2-0.6-0.5c0-0.3,0.1-0.5,0.2-0.8l12.5-22.4   c0.2-0.3,0.4-0.6,0.7-0.8c0.3-0.2,0.7-0.4,1.1-0.4h6.1c0.4,0,0.7,0.1,1,0.3c0.2,0.2,0.3,0.5,0.4,0.8L120.7,85.6z M113.2,77.5   l-1.1-8.5l-4.7,8.5H113.2z" style="fill: rgb(255, 255, 255);"/><path class="st0" d="M136.2,74.2l-2.5,11.8c0,0.3-0.2,0.5-0.4,0.7c-0.2,0.2-0.5,0.3-0.7,0.3h-4.7c-0.3,0-0.5-0.1-0.6-0.3   c-0.2-0.2-0.2-0.4-0.2-0.7l4.9-23c0-0.3,0.2-0.5,0.4-0.7c0.2-0.2,0.5-0.3,0.7-0.3h4.3c0.4,0,0.7,0.1,0.9,0.3   c0.2,0.2,0.3,0.4,0.4,0.6l3.1,9.9l7.2-9.9c0.5-0.6,1-1,1.7-1h5.3c0.3,0,0.5,0.1,0.6,0.3c0.2,0.2,0.2,0.4,0.2,0.7l-4.9,23   c0,0.3-0.2,0.5-0.4,0.7c-0.2,0.2-0.5,0.3-0.7,0.3h-4.7c-0.3,0-0.5-0.1-0.6-0.3c-0.2-0.2-0.2-0.4-0.2-0.7l2.5-11.8l-4.1,5.9   c-0.5,0.6-1,0.9-1.5,0.9h-3.1c-0.6,0-0.9-0.3-1.1-0.9L136.2,74.2z" style="fill: rgb(255, 255, 255);"/></g></g></svg>