<?xml version="1.0" encoding="utf-8"?>
<svg xmlns="http://www.w3.org/2000/svg" viewBox="548.7393 117.4799 386.2916 85.9072" width="386.292px" height="85.9072px" preserveAspectRatio="none"><g id="svg3317" style="shape-rendering: geometricprecision;" transform="matrix(1, 0, 0, 1, 690.2721557617188, -1.6633059978485107)"><g id="g86" transform="matrix(0.726795, 0, 0, 0.726795, -162.900604, 113.692238)" style="fill:#232b54;fill-opacity:1"><path id="path12" d="M 121.6,39.8 C 90,39.8 63.8,64.3 62,95.5 c 0,0.8 0.2,1.5 0.8,2.1 0.5,0.6 1.3,0.9 2.1,0.9 H 86 c 1.5,0 2.7,-1.1 2.9,-2.7 1.6,-16.8 15.7,-29.5 32.8,-29.5 17.1,0 31.2,12.7 32.8,29.5 0.1,1.5 1.4,2.7 2.9,2.7 h 21 c 0.8,0 1.6,-0.3 2.1,-0.9 0.5,-0.6 0.8,-1.3 0.8,-2.1 -1.9,-31.3 -28.1,-55.7 -59.7,-55.7" class="st0" style="fill-opacity: 1; fill: rgb(255, 255, 255);"/><path id="path14" d="m 121.6,72.1 c -14.9,0 -27.1,12 -27.1,26.8 0,14.8 12.2,26.8 27.1,26.8 14.9,0 27.1,-12 27.1,-26.8 0,-14.8 -12.2,-26.8 -27.1,-26.8" class="st0" style="fill-opacity: 1; fill: rgb(255, 255, 255);"/><path id="path16" d="m 121.6,7.5 c -24,0 -46.8,9.1 -64.1,25.6 -17.2,16.5 -27.2,38.6 -28.1,62.3 0,0.8 0.3,1.5 0.8,2.1 0.6,0.6 1.3,0.9 2.1,0.9 h 20.9 c 1.5,0 2.8,-1.2 2.9,-2.7 1.7,-34.7 30.4,-61.8 65.5,-61.8 35,0 63.8,27.1 65.5,61.8 0.1,1.5 1.3,2.7 2.9,2.7 h 20.9 c 0.8,0 1.5,-0.3 2.1,-0.9 0.6,-0.6 0.8,-1.3 0.8,-2.1 C 212.9,71.7 202.9,49.6 185.7,33.1 168.4,16.7 145.6,7.5 121.6,7.5" class="st0" style="fill-opacity: 1; fill: rgb(255, 255, 255);"/><path id="path18" d="m 322.4,19.1 h -24 c -0.4,0 -0.7,0.2 -0.7,0.6 l -15,58.4 h -0.2 L 268,19.7 c -0.1,-0.3 -0.4,-0.6 -0.7,-0.6 h -25 c -0.4,0 -0.7,0.3 -0.8,0.7 l -5.2,77.1 c 0,0.2 0.1,0.4 0.2,0.6 0.1,0.2 0.4,0.2 0.6,0.2 h 13 c 0.4,0 0.7,-0.3 0.8,-0.7 l 3.8,-64.2 h 0.1 l 17.1,64.4 c 0.1,0.3 0.4,0.6 0.7,0.6 h 17.9 c 0.3,0 0.6,-0.2 0.7,-0.6 l 17.7,-64.4 h 0.1 l 2.8,64.2 c 0,0.4 0.4,0.7 0.8,0.7 h 15.1 c 0.2,0 0.4,-0.1 0.6,-0.2 0.1,-0.2 0.2,-0.4 0.2,-0.6 l -5.2,-77.1 c -0.1,-0.4 -0.5,-0.7 -0.9,-0.7" class="st0" style="fill-opacity: 1; fill: rgb(255, 255, 255);"/><path id="path20" d="m 361.1,37.2 c -6.2,0 -15.7,1 -20.7,2.1 -0.3,0.1 -0.6,0.4 -0.6,0.7 v 10.9 c 0,0.2 0.1,0.4 0.3,0.6 0.2,0.1 0.4,0.2 0.6,0.1 3.5,-0.8 11.5,-2.1 19.5,-2.1 13.3,0 13.7,3.2 13.7,11.6 h -1.2 c -12,0 -25.6,0 -32.5,6.8 -2.9,2.8 -4.3,6.7 -4.3,11.5 0,16.8 13.3,19.3 27.7,19.5 1.3,0 2.6,0.1 3.9,0.1 6.7,0 13.7,-0.5 23.1,-1.5 0.4,0 0.7,-0.4 0.7,-0.8 V 57.2 c 0,-5.9 -1.7,-10.5 -5,-13.7 -5.8,-5.7 -15.5,-6.4 -25.2,-6.3 m 12.8,35.5 v 14.1 c -3,0.4 -5.5,0.6 -8.4,0.6 -6.8,0 -11.6,-0.5 -11.6,-7.4 0,-6.9 4.8,-7.4 11.6,-7.4 4.1,0 6.9,0 8.4,0.1" class="st0" style="fill-opacity: 1; fill: rgb(255, 255, 255);"/><path id="path22" d="m 449.5,85.1 -1,0.1 c -2.8,0.4 -5.5,0.7 -10.1,0.7 -15.2,0 -21.4,-5.3 -21.4,-18.2 0,-12.8 6,-17.9 21.4,-17.9 3.5,0 6.5,0.3 10.7,0.8 0.2,0 0.4,0 0.6,-0.2 0.2,-0.1 0.3,-0.3 0.3,-0.6 V 39.5 c 0,-0.4 -0.2,-0.7 -0.6,-0.7 -5,-1.1 -10.7,-1.7 -17.1,-1.7 -23,0 -33.3,15 -33.3,29.8 0,20 12.7,31.9 34,31.9 6.4,0 11.7,-0.6 16.9,-1.9 0.3,-0.1 0.6,-0.4 0.6,-0.7 V 85.7 c 0,-0.2 -0.1,-0.4 -0.3,-0.6 -0.3,0 -0.5,0 -0.7,0" class="st0" style="fill-opacity: 1; fill: rgb(255, 255, 255);"/><path id="path24" d="m 497.4,38.7 c 0,-0.4 -0.3,-0.8 -0.8,-0.8 h -1 c -5.2,0 -11.6,-0.1 -21,5.2 v -4 c 0,-0.4 -0.3,-0.8 -0.8,-0.8 h -14 c -0.4,0 -0.8,0.3 -0.8,0.8 V 97 c 0,0.4 0.3,0.8 0.8,0.8 h 15.8 c 0.4,0 0.8,-0.3 0.8,-0.8 V 55.7 c 5.2,-3.4 13.7,-3.4 19.4,-3.4 h 0.9 c 0.4,0 0.8,-0.3 0.8,-0.8 z" class="st0" style="fill-opacity: 1; fill: rgb(255, 255, 255);"/><path id="path26" d="m 529.2,37.1 c -19.7,0 -31.9,11.9 -31.9,30.9 0,19.1 12.2,30.9 31.9,30.9 18.6,0 31.7,-12.7 31.7,-30.9 0,-19.1 -12.2,-30.9 -31.7,-30.9 m 13.7,31.1 c 0,13.2 -4,18.6 -13.8,18.6 -9.9,0 -13.9,-5.4 -13.9,-18.6 0,-13.3 4,-18.7 13.9,-18.7 9.8,0 13.8,5.4 13.8,18.7" class="st0" style="fill-opacity: 1; fill: rgb(255, 255, 255);"/></g></g></svg>