<?xml version="1.0" encoding="UTF-8" standalone="no"?>
<svg
   xmlns:dc="http://purl.org/dc/elements/1.1/"
   xmlns:cc="http://creativecommons.org/ns#"
   xmlns:rdf="http://www.w3.org/1999/02/22-rdf-syntax-ns#"
   xmlns:svg="http://www.w3.org/2000/svg"
   xmlns="http://www.w3.org/2000/svg"
   viewBox="0 0 2560 1440"
   height="1440"
   width="2560"
   xml:space="preserve"
   id="svg2"
   version="1.1"><metadata
     id="metadata8"><rdf:RDF><cc:Work
         rdf:about=""><dc:format>image/svg+xml</dc:format><dc:type
           rdf:resource="http://purl.org/dc/dcmitype/StillImage" /></cc:Work></rdf:RDF></metadata><defs
     id="defs6"><clipPath
       id="clipPath18"
       clipPathUnits="userSpaceOnUse"><path
         id="path16"
         d="M 0,1080 H 1920 V 0 H 0 Z" /></clipPath></defs><g
     transform="matrix(1.3333333,0,0,-1.3333333,0,1440)"
     id="g10"><g
       id="g12"><g
         clip-path="url(#clipPath18)"
         id="g14"><g
           transform="translate(503.8076,401.6406)"
           id="g20"><path
             id="path22"
             style="fill:#00b2eb;fill-opacity:1;fill-rule:nonzero;stroke:none"
             d="m 0,0 c -2.146,1.521 -4.528,2.63 -7.027,3.302 l -8.902,-33.218 c 3.032,-0.814 5.919,-2.161 8.518,-4.006 L 19.52,-53.021 c 4.616,-3.275 10.015,-4.913 15.416,-4.913 v 38.122 c -4.456,0 -8.91,1.35 -12.719,4.052 z M -63.912,14.136 -75.277,38.89 c -1.095,2.39 -2.604,4.544 -4.433,6.375 l -24.318,-24.319 c 2.217,-2.217 4.046,-4.83 5.375,-7.727 l 13.771,-30.006 c 2.362,-5.145 6.218,-9.261 10.896,-11.96 l 19.061,33.013 c -3.859,2.227 -7.04,5.625 -8.987,9.87 M 111.756,1.416 84.635,3.956 C 82.018,4.201 79.398,3.972 76.899,3.302 l 8.9,-33.218 c 3.032,0.811 6.205,1.089 9.379,0.79 l 32.873,-3.078 c 5.636,-0.525 11.13,0.755 15.808,3.457 L 124.797,4.266 C 120.939,2.04 116.405,0.981 111.756,1.416 m -191.466,273.141 -24.318,24.316 c -2.221,-2.218 -4.83,-4.044 -7.728,-5.375 l -30.006,-13.771 c -5.144,-2.359 -9.26,-6.218 -11.96,-10.896 l 33.015,-19.059 c 2.226,3.856 5.623,7.04 9.868,8.987 l 24.754,11.363 c 2.39,1.097 4.543,2.604 6.375,4.435 M 180.711,61.063 155.955,49.701 c -2.388,-1.097 -4.544,-2.607 -6.372,-4.436 l 24.318,-24.319 c 2.218,2.218 4.827,4.047 7.725,5.376 l 30.006,13.771 c 5.144,2.362 9.263,6.218 11.962,10.895 L 190.58,70.05 c -2.226,-3.859 -5.626,-7.04 -9.869,-8.987 m -187.738,255.458 -8.902,33.218 c -3.029,-0.812 -6.203,-1.087 -9.376,-0.791 l -32.873,3.075 c -5.636,0.526 -11.133,-0.754 -15.808,-3.454 l 19.061,-33.015 c 3.856,2.226 8.392,3.285 13.039,2.849 l 27.124,-2.537 c 2.616,-0.244 5.234,-0.018 7.735,0.655 m -133.707,-143.89 15.756,22.217 c 1.522,2.145 2.633,4.525 3.305,7.027 l -33.221,8.899 c -0.811,-3.032 -2.158,-5.917 -4.003,-8.516 l -19.1,-26.933 c -3.276,-4.616 -4.912,-10.015 -4.912,-15.414 h 38.123 c 0,4.456 1.349,8.907 4.052,12.72 m 17.175,-89.539 2.54,27.118 c 0.242,2.62 0.016,5.236 -0.654,7.738 l -33.221,-8.902 c 0.814,-3.032 1.09,-6.205 0.793,-9.379 l -3.078,-32.87 c -0.528,-5.639 0.755,-11.133 3.454,-15.809 l 33.018,19.062 c -2.228,3.856 -3.287,8.389 -2.852,13.042 m 338.218,76.819 c 0,-4.453 -1.35,-8.91 -4.052,-12.717 l -15.759,-22.216 c -1.523,-2.146 -2.635,-4.529 -3.305,-7.03 l 33.221,-8.902 c 0.811,3.031 2.158,5.919 4.003,8.52 l 19.102,26.929 c 3.274,4.618 4.912,10.015 4.912,15.416 z M 85.799,349.739 c -3.032,0.811 -5.919,2.158 -8.518,4.003 L 50.35,372.841 c -4.616,3.277 -10.015,4.912 -15.414,4.912 v -38.119 c 4.454,0 8.908,-1.353 12.717,-4.055 L 69.87,319.823 c 2.146,-1.523 4.528,-2.633 7.029,-3.302 z m 82.723,-43.138 -13.77,30.006 c -2.362,5.144 -6.218,9.26 -10.896,11.962 l -19.061,-33.015 c 3.858,-2.228 7.042,-5.625 8.99,-9.867 l 11.359,-24.757 c 1.097,-2.388 2.607,-4.541 4.436,-6.373 l 24.318,24.316 c -2.217,2.223 -4.046,4.833 -5.376,7.728 m 24.906,-69.873 -2.539,-27.116 c -0.245,-2.619 -0.016,-5.237 0.654,-7.737 l 33.221,8.899 c -0.814,3.032 -1.09,6.205 -0.794,9.381 l 3.078,32.868 c 0.529,5.639 -0.754,11.133 -3.454,15.808 L 190.58,249.772 c 2.228,-3.858 3.284,-8.392 2.848,-13.044" /></g><g
           transform="translate(551.4609,385.8809)"
           id="g24"><path
             id="path26"
             style="fill:#0083ca;fill-opacity:1;fill-rule:nonzero;stroke:none"
             d="m 0,0 c -3.81,-2.702 -8.264,-4.052 -12.717,-4.052 v -38.123 c 5.399,0 10.798,1.639 15.414,4.912 l 26.93,19.101 c 2.602,1.844 5.49,3.191 8.519,4.005 l -8.9,33.219 c -2.501,-0.67 -4.884,-1.781 -7.029,-3.303 z m 77.144,20.024 19.062,-33.011 c 4.675,2.699 8.533,6.815 10.893,11.962 l 13.773,30.004 c 1.329,2.897 3.155,5.509 5.376,7.727 l -24.319,24.318 c -1.831,-1.831 -3.338,-3.982 -4.436,-6.375 L 86.131,29.896 C 84.184,25.65 81,22.255 77.144,20.024 m -179.722,0 -19.062,-33.011 c 4.676,-2.702 10.172,-3.983 15.808,-3.457 l 32.871,3.081 c 3.173,0.296 6.349,0.017 9.378,-0.794 l 8.903,33.219 c -2.502,0.668 -5.121,0.898 -7.738,0.654 l -27.122,-2.54 c -4.646,-0.436 -9.182,0.623 -13.038,2.848 m 210.88,265.857 24.756,-11.362 c 4.243,-1.948 7.64,-5.131 9.868,-8.987 l 33.015,19.058 c -2.7,4.678 -6.818,8.537 -11.96,10.896 l -30.008,13.773 c -2.898,1.329 -5.508,3.156 -7.725,5.373 l -24.319,-24.316 c 1.829,-1.831 3.985,-3.338 6.373,-4.435 M -168.36,85.81 -201.378,66.748 c 2.702,-4.676 6.818,-8.531 11.962,-10.894 l 30.007,-13.773 c 2.897,-1.329 5.507,-3.157 7.727,-5.375 l 24.319,24.318 c -1.832,1.83 -3.985,3.338 -6.375,4.436 l -24.754,11.362 c -4.245,1.948 -7.643,5.128 -9.868,8.988 m 205.339,245.815 27.124,2.538 c 4.649,0.435 9.183,-0.624 13.041,-2.849 l 19.059,33.015 c -4.675,2.699 -10.17,3.979 -15.806,3.454 l -32.875,-3.076 c -3.171,-0.296 -6.345,-0.02 -9.376,0.793 l -8.9,-33.22 c 2.499,-0.673 5.116,-0.899 7.733,-0.655 M 167.003,175.67 h 38.125 c 0,5.399 -1.638,10.801 -4.912,15.417 l -19.1,26.931 c -1.845,2.599 -3.194,5.486 -4.006,8.515 l -33.218,-8.899 c 0.67,-2.499 1.78,-4.882 3.302,-7.027 l 15.76,-22.217 c 2.699,-3.812 4.049,-8.264 4.049,-12.72 M 142.926,85.81 175.941,66.748 c 2.7,4.678 3.982,10.169 3.454,15.808 l -3.075,32.873 c -0.299,3.171 -0.021,6.344 0.79,9.376 l -33.218,8.902 c -0.669,-2.498 -0.899,-5.118 -0.654,-7.737 l 2.537,-27.119 c 0.435,-4.652 -0.621,-9.183 -2.849,-13.041 m -373.488,89.86 c 0,-5.399 1.635,-10.797 4.912,-15.416 l 19.1,-26.928 c 1.844,-2.601 3.192,-5.489 4.006,-8.521 l 33.217,8.902 c -0.669,2.501 -1.782,4.884 -3.301,7.029 l -15.76,22.218 c -2.702,3.807 -4.051,8.263 -4.051,12.716 z M -54.68,332.28 c 2.501,0.669 4.881,1.78 7.027,3.302 l 22.216,15.756 c 3.81,2.703 8.264,4.055 12.72,4.055 v 38.12 c -5.399,0 -10.798,-1.636 -15.417,-4.912 l -26.928,-19.1 c -2.601,-1.845 -5.489,-3.192 -8.521,-4.001 z m -97.002,-17.648 24.319,-24.316 c 1.831,1.832 3.338,3.985 4.435,6.376 l 11.36,24.754 c 1.95,4.242 5.131,7.639 8.99,9.868 l -19.062,33.015 c -4.675,-2.7 -8.533,-6.819 -10.893,-11.963 l -13.773,-30.006 c -1.329,-2.895 -3.155,-5.505 -5.376,-7.728 m -16.678,-49.1 -33.015,19.058 c -2.702,-4.675 -3.982,-10.169 -3.457,-15.805 l 3.078,-32.87 c 0.299,-3.177 0.021,-6.35 -0.79,-9.382 l 33.217,-8.899 c 0.67,2.501 0.9,5.12 0.655,7.738 l -2.54,27.115 c -0.435,4.653 0.624,9.186 2.852,13.045" /></g><g
           transform="translate(642.5488,554.0356)"
           id="g28"><path
             id="path30"
             style="fill:#fdc400;fill-opacity:1;fill-rule:nonzero;stroke:none"
             d="m 0,0 -9.312,-13.129 c -1.798,-2.535 -2.627,-5.628 -2.338,-8.722 l 1.501,-16.026 c 0.513,-5.498 -2.501,-10.716 -7.516,-13.019 l -14.628,-6.713 c -2.826,-1.296 -5.093,-3.562 -6.389,-6.388 l -6.715,-14.628 c -2.3,-5.015 -7.519,-8.029 -13.016,-7.514 l -16.024,1.499 c -3.094,0.289 -6.19,-0.538 -8.727,-2.339 l -13.127,-9.312 c -4.5,-3.191 -10.53,-3.191 -15.03,0 l -13.129,9.312 c -2.534,1.801 -5.631,2.628 -8.724,2.339 l -16.025,-1.499 c -5.496,-0.515 -10.715,2.499 -13.018,7.516 l -6.715,14.626 c -1.296,2.826 -3.563,5.092 -6.388,6.388 l -14.626,6.713 c -5.015,2.303 -8.029,7.521 -7.516,13.019 l 1.499,16.024 c 0.291,3.096 -0.538,6.189 -2.336,8.724 L -207.611,0 c -3.192,4.5 -3.192,10.53 0,15.03 l 9.312,13.129 c 1.798,2.535 2.627,5.631 2.336,8.725 l -1.499,16.024 c -0.513,5.497 2.501,10.716 7.516,13.018 l 14.628,6.713 c 2.823,1.299 5.09,3.565 6.386,6.391 l 6.715,14.625 c 2.303,5.018 7.522,8.032 13.018,7.514 l 16.025,-1.499 c 3.093,-0.288 6.19,0.541 8.724,2.339 l 13.129,9.312 c 4.5,3.194 10.53,3.191 15.03,0 l 13.127,-9.312 c 2.537,-1.798 5.631,-2.627 8.725,-2.339 l 16.026,1.499 c 5.497,0.518 10.716,-2.496 13.016,-7.514 l 6.715,-14.625 c 1.296,-2.826 3.563,-5.092 6.389,-6.391 l 14.628,-6.713 c 5.015,-2.302 8.029,-7.521 7.516,-13.018 L -11.65,36.884 c -0.289,-3.094 0.54,-6.19 2.338,-8.725 L 0,15.03 C 3.191,10.53 3.191,4.5 0,0 M 34.602,17.537 22.186,35.042 c -2.398,3.379 -3.506,7.509 -3.12,11.632 l 2.002,21.367 c 0.685,7.326 -3.333,14.286 -10.02,17.354 l -19.505,8.953 c -3.766,1.729 -6.787,4.753 -8.518,8.519 l -8.948,19.502 c -3.071,6.689 -10.031,10.705 -17.356,10.02 l -21.372,-1.999 c -4.124,-0.387 -8.251,0.718 -11.63,3.116 l -17.506,12.416 c -6.002,4.258 -14.036,4.258 -20.04,0 l -17.503,-12.416 c -3.379,-2.398 -7.506,-3.503 -11.632,-3.116 l -21.37,1.999 c -7.325,0.685 -14.285,-3.331 -17.356,-10.02 l -8.951,-19.502 c -1.728,-3.769 -4.75,-6.79 -8.516,-8.519 l -19.504,-8.953 c -6.687,-3.068 -10.705,-10.028 -10.02,-17.354 l 1.999,-21.367 c 0.386,-4.123 -0.721,-8.253 -3.117,-11.632 l -12.415,-17.505 c -4.258,-6.002 -4.258,-14.041 0,-20.043 l 12.415,-17.503 c 2.396,-3.38 3.503,-7.509 3.117,-11.633 l -1.999,-21.366 c -0.685,-7.328 3.333,-14.288 10.02,-17.357 l 19.504,-8.953 c 3.766,-1.728 6.788,-4.75 8.516,-8.515 l 8.951,-19.505 c 3.071,-6.69 10.031,-10.705 17.359,-10.021 l 21.367,2.002 c 4.124,0.384 8.253,-0.722 11.632,-3.119 l 17.503,-12.413 c 6.004,-4.261 14.038,-4.261 20.043,0 l 17.503,12.413 c 3.379,2.397 7.509,3.503 11.632,3.119 l 21.37,-2.002 c 7.325,-0.684 14.285,3.331 17.356,10.021 l 8.948,19.502 c 1.731,3.768 4.752,6.79 8.518,8.518 l 19.505,8.953 c 6.687,3.069 10.705,10.029 10.02,17.354 l -2.002,21.369 c -0.386,4.124 0.722,8.253 3.12,11.633 l 12.416,17.503 c 4.255,6.002 4.255,14.041 0,20.043" /></g><g
           transform="translate(865.6846,565.7358)"
           id="g32"><path
             id="path34"
             style="fill:#0083ca;fill-opacity:1;fill-rule:nonzero;stroke:none"
             d="M 0,0 -4.59,-15.973 H 28.753 L 24.16,0 C 22.027,6.922 19.997,14.042 18.07,21.365 16.139,28.684 14.243,35.94 12.381,43.126 H 11.582 C 9.715,35.806 7.852,28.519 5.989,21.265 4.124,14.006 2.128,6.922 0,0 M -43.727,-69.484 -1.197,61.099 H 25.956 L 68.484,-69.484 H 44.126 L 33.943,-34.141 H -9.981 l -10.186,-35.343 z" /></g><g
           transform="translate(943.3545,496.2529)"
           id="g36"><path
             id="path38"
             style="fill:#0083ca;fill-opacity:1;fill-rule:nonzero;stroke:none"
             d="m 0,0 v 98.036 h 18.967 l 1.596,-17.372 h 0.802 c 3.459,6.39 7.651,11.279 12.578,14.677 4.923,3.393 9.982,5.09 15.175,5.09 4.657,0 8.385,-0.667 11.18,-1.996 L 56.305,78.469 c -1.731,0.531 -3.33,0.927 -4.791,1.198 -1.468,0.262 -3.264,0.399 -5.392,0.399 -3.861,0 -7.921,-1.497 -12.179,-4.493 C 29.68,72.578 26.022,67.354 22.962,59.901 V 0 Z" /></g><g
           transform="translate(1046.1787,541.7778)"
           id="g40"><path
             id="path42"
             style="fill:#0083ca;fill-opacity:1;fill-rule:nonzero;stroke:none"
             d="m 0,0 c 4.657,0 8.65,1.695 11.98,5.092 3.324,3.393 4.99,8.282 4.99,14.676 0,6.12 -1.63,10.878 -4.892,14.273 C 8.814,37.436 4.791,39.134 0,39.134 c -4.791,0 -8.854,-1.667 -12.182,-4.992 -3.328,-3.329 -4.989,-8.12 -4.989,-14.374 0,-6.394 1.661,-11.283 4.989,-14.676 C -8.854,1.695 -4.791,0 0,0 m 2.396,-73.878 c 7.988,0 14.404,1.568 19.268,4.696 4.857,3.127 7.287,6.82 7.287,11.079 0,3.861 -1.499,6.458 -4.492,7.787 -2.996,1.331 -7.288,1.996 -12.878,1.996 H -1.798 c -5.325,0 -9.784,0.469 -13.377,1.399 -5.059,-3.859 -7.587,-8.187 -7.587,-12.978 0,-4.392 2.227,-7.82 6.691,-10.283 4.456,-2.463 10.61,-3.696 18.467,-3.696 M -1.198,-88.85 c -5.861,0 -11.281,0.533 -16.273,1.598 -4.992,1.066 -9.286,2.663 -12.879,4.788 -3.593,2.131 -6.424,4.794 -8.485,7.988 -2.063,3.194 -3.094,6.922 -3.094,11.183 0,4.126 1.196,7.957 3.594,11.48 2.396,3.526 5.857,6.688 10.381,9.482 v 0.801 c -2.527,1.598 -4.624,3.723 -6.288,6.389 -1.664,2.663 -2.496,5.991 -2.496,9.981 0,3.86 1.099,7.355 3.295,10.485 2.197,3.127 4.69,5.69 7.488,7.686 v 0.799 c -3.331,2.526 -6.293,6.023 -8.888,10.482 -2.594,4.458 -3.894,9.615 -3.894,15.476 0,5.589 1.066,10.579 3.196,14.971 2.128,4.395 4.957,8.089 8.488,11.084 3.524,2.993 7.617,5.255 12.278,6.788 4.657,1.53 9.585,2.295 14.775,2.295 2.661,0 5.222,-0.232 7.687,-0.698 2.459,-0.469 4.693,-1.03 6.689,-1.698 H 49.518 V 35.54 h -17.97 c 1.597,-1.868 2.926,-4.229 3.99,-7.089 1.064,-2.864 1.6,-6.025 1.6,-9.485 0,-5.458 -0.966,-10.252 -2.896,-14.373 C 32.31,0.466 29.68,-2.996 26.354,-5.791 23.026,-8.585 19.098,-10.716 14.574,-12.182 10.049,-13.648 5.19,-14.376 0,-14.376 c -2.131,0 -4.328,0.198 -6.59,0.597 -2.264,0.402 -4.525,1.064 -6.787,1.999 -1.466,-1.335 -2.63,-2.664 -3.496,-3.995 -0.867,-1.332 -1.298,-3.128 -1.298,-5.392 0,-2.794 1.164,-4.99 3.496,-6.586 2.325,-1.6 6.488,-2.396 12.478,-2.396 h 17.372 c 11.844,0 20.796,-1.896 26.851,-5.69 6.059,-3.794 9.088,-9.949 9.088,-18.47 0,-4.791 -1.233,-9.315 -3.696,-13.578 -2.463,-4.258 -5.956,-7.918 -10.481,-10.981 -4.527,-3.063 -10.016,-5.489 -16.471,-7.288 -6.458,-1.798 -13.679,-2.694 -21.664,-2.694" /></g><g
           transform="translate(1122.251,554.5542)"
           id="g44"><path
             id="path46"
             style="fill:#0083ca;fill-opacity:1;fill-rule:nonzero;stroke:none"
             d="m 0,0 h 43.525 c 0,7.586 -1.63,13.544 -4.888,17.87 -3.267,4.324 -8.287,6.491 -15.077,6.491 -5.859,0 -10.982,-2.066 -15.373,-6.19 C 3.794,14.042 1.063,7.988 0,0 m 26.156,-60.697 c -6.791,0 -13.112,1.169 -18.967,3.495 -5.86,2.327 -10.984,5.688 -15.376,10.083 -4.392,4.392 -7.82,9.747 -10.283,16.072 -2.463,6.321 -3.694,13.544 -3.694,21.663 0,7.988 1.265,15.175 3.795,21.566 2.526,6.388 5.89,11.779 10.082,16.172 4.193,4.392 9.016,7.787 14.476,10.182 5.457,2.399 11.046,3.594 16.773,3.594 6.653,0 12.509,-1.131 17.567,-3.395 5.06,-2.265 9.287,-5.459 12.682,-9.583 3.395,-4.127 5.956,-9.052 7.686,-14.776 1.729,-5.726 2.594,-11.978 2.594,-18.765 0,-2.267 -0.099,-4.395 -0.298,-6.394 -0.199,-1.993 -0.433,-3.591 -0.698,-4.791 H 0.2 c 1.062,-8.784 4.158,-15.541 9.284,-20.262 5.123,-4.727 11.68,-7.089 19.665,-7.089 4.261,0 8.22,0.628 11.88,1.895 3.66,1.263 7.29,3.028 10.881,5.291 l 7.79,-14.376 c -4.663,-3.063 -9.853,-5.59 -15.574,-7.586 -5.724,-1.997 -11.716,-2.996 -17.97,-2.996" /></g><g
           transform="translate(1202.7129,496.2529)"
           id="g48"><path
             id="path50"
             style="fill:#0083ca;fill-opacity:1;fill-rule:nonzero;stroke:none"
             d="m 0,0 v 98.036 h 18.967 l 1.596,-13.179 h 0.801 c 4.393,4.258 9.151,7.918 14.274,10.981 5.124,3.063 11.082,4.593 17.87,4.593 10.514,0 18.171,-3.361 22.964,-10.084 4.789,-6.721 7.187,-16.34 7.187,-28.848 V 0 H 60.697 v 58.502 c 0,8.118 -1.198,13.841 -3.593,17.169 -2.396,3.329 -6.325,4.993 -11.781,4.993 -4.262,0 -8.021,-1.031 -11.282,-3.094 C 30.78,75.506 27.086,72.479 22.962,68.487 V 0 Z" /></g><g
           transform="translate(1344.0713,493.8564)"
           id="g52"><path
             id="path54"
             style="fill:#0083ca;fill-opacity:1;fill-rule:nonzero;stroke:none"
             d="m 0,0 c -5.724,0 -10.551,0.867 -14.474,2.599 -3.928,1.728 -7.123,4.157 -9.583,7.285 -2.464,3.127 -4.262,6.854 -5.391,11.184 -1.133,4.32 -1.698,9.145 -1.698,14.474 v 46.723 h -13.977 v 17.169 l 15.176,0.997 2.792,26.756 h 19.17 V 100.431 H 16.974 V 82.265 H -7.985 V 35.542 c 0,-11.449 4.592,-17.171 13.779,-17.171 1.726,0 3.49,0.198 5.288,0.598 1.798,0.402 3.426,0.929 4.892,1.596 L 19.967,3.596 C 17.303,2.66 14.276,1.831 10.884,1.1 7.488,0.37 3.861,0 0,0" /></g><path
           id="path56"
           style="fill:#0083ca;fill-opacity:1;fill-rule:nonzero;stroke:none"
           d="m 1376.617,594.289 h 22.962 v -98.036 h -22.962 z m 11.582,17.17 c -4.13,0 -7.522,1.198 -10.182,3.594 -2.666,2.396 -3.996,5.523 -3.996,9.387 0,3.856 1.33,7.017 3.996,9.482 2.66,2.462 6.052,3.694 10.182,3.694 4.124,0 7.517,-1.232 10.183,-3.694 2.661,-2.465 3.993,-5.626 3.993,-9.482 0,-3.864 -1.332,-6.991 -3.993,-9.387 -2.666,-2.396 -6.059,-3.594 -10.183,-3.594" /><g
           transform="translate(1423.9365,496.2529)"
           id="g58"><path
             id="path60"
             style="fill:#0083ca;fill-opacity:1;fill-rule:nonzero;stroke:none"
             d="m 0,0 v 98.036 h 18.966 l 1.597,-13.179 h 0.801 c 4.393,4.258 9.151,7.918 14.274,10.981 5.124,3.063 11.085,4.593 17.869,4.593 10.515,0 18.171,-3.361 22.965,-10.084 4.791,-6.721 7.187,-16.34 7.187,-28.848 V 0 H 60.696 v 58.502 c 0,8.118 -1.197,13.841 -3.592,17.169 -2.396,3.329 -6.325,4.993 -11.781,4.993 -4.262,0 -8.021,-1.031 -11.282,-3.094 -3.262,-2.064 -6.955,-5.091 -11.079,-9.083 L 22.962,0 Z" /></g><g
           transform="translate(1561.9033,511.8271)"
           id="g62"><path
             id="path64"
             style="fill:#0083ca;fill-opacity:1;fill-rule:nonzero;stroke:none"
             d="m 0,0 c 3.992,0 7.617,0.93 10.881,2.795 3.258,1.862 6.754,4.523 10.481,7.988 V 32.745 C 14.706,31.944 9.113,30.878 4.59,29.551 0.064,28.217 -3.597,26.72 -6.392,25.059 c -2.792,-1.666 -4.791,-3.563 -5.989,-5.691 -1.197,-2.133 -1.795,-4.394 -1.795,-6.79 0,-4.391 1.326,-7.589 3.99,-9.582 C -7.522,0.999 -4.13,0 0,0 m -7.391,-17.973 c -8.652,0 -15.638,2.63 -20.963,7.891 -5.325,5.257 -7.985,12.21 -7.985,20.865 0,5.191 1.097,9.815 3.294,13.876 2.195,4.058 5.654,7.553 10.382,10.482 4.724,2.926 10.713,5.391 17.97,7.388 7.254,1.996 15.939,3.526 26.055,4.59 -0.133,2.527 -0.5,4.959 -1.097,7.29 -0.601,2.326 -1.597,4.392 -2.994,6.188 -1.398,1.798 -3.23,3.196 -5.492,4.193 -2.263,1 -5.061,1.497 -8.386,1.497 -4.792,0 -9.483,-0.933 -14.076,-2.795 -4.592,-1.865 -9.086,-4.124 -13.477,-6.785 l -8.385,15.371 c 5.453,3.462 11.579,6.455 18.369,8.987 6.785,2.527 14.106,3.792 21.96,3.792 12.246,0 21.396,-3.63 27.457,-10.881 6.054,-7.256 9.083,-17.741 9.083,-31.447 V -15.574 H 25.357 l -1.596,10.783 h -0.802 c -4.392,-3.73 -9.083,-6.857 -14.075,-9.387 -4.992,-2.524 -10.417,-3.795 -16.275,-3.795" /></g></g></g></g></svg>