<?xml version="1.0" encoding="utf-8"?>
<svg xmlns="http://www.w3.org/2000/svg" viewBox="545.6212 20.766 151.9133 72.7999" width="151.913px" height="72.7999px" preserveAspectRatio="none"><g id="svg-1"><path class="st0" d="M 596.334 38.666 L 594.834 52.266 C 594.734 52.966 594.134 53.566 593.434 53.566 L 579.434 53.566 C 578.734 53.566 578.134 54.166 578.034 54.866 L 576.534 68.866 C 576.434 69.566 575.834 70.166 575.134 70.166 L 561.434 70.166 C 560.734 70.166 560.234 69.566 560.334 68.866 L 561.834 54.866 C 561.934 54.166 561.434 53.566 560.734 53.566 L 546.734 53.566 C 546.034 53.566 545.534 52.966 545.634 52.266 L 547.134 38.666 C 547.234 37.966 547.834 37.366 548.534 37.366 L 562.534 37.366 C 563.234 37.366 563.834 36.766 563.934 36.066 L 565.434 22.066 C 565.534 21.366 566.134 20.766 566.834 20.766 L 580.434 20.766 C 581.134 20.766 581.634 21.366 581.534 22.066 L 580.034 36.066 C 579.934 36.766 580.434 37.366 581.134 37.366 L 595.134 37.366 C 595.934 37.366 596.434 37.966 596.334 38.666 M 581.734 66.566 L 581.734 66.366 C 581.734 65.866 581.434 65.566 580.934 65.566 L 565.934 65.566 C 565.434 65.566 565.134 65.966 565.034 66.366 L 565.034 66.566 C 565.034 67.066 565.334 67.366 565.834 67.366 L 580.834 67.366 C 581.334 67.366 581.634 66.966 581.734 66.566 M 584.634 62.466 L 584.634 62.266 C 584.634 61.766 584.334 61.466 583.834 61.466 L 568.834 61.466 C 568.334 61.466 568.034 61.866 567.934 62.266 L 567.934 62.466 C 567.934 62.966 568.234 63.266 568.734 63.266 L 583.734 63.266 C 584.234 63.266 584.634 62.966 584.634 62.466 M 589.134 58.366 L 589.134 58.166 C 589.134 57.666 588.834 57.366 588.334 57.366 L 572.334 57.366 C 571.834 57.366 571.534 57.766 571.434 58.166 L 571.434 58.366 C 571.434 58.866 571.734 59.166 572.234 59.166 L 588.234 59.166 C 588.734 59.266 589.134 58.866 589.134 58.366" style="fill: rgb(255, 255, 255); stroke-width: 1;"/><g transform="matrix(1, 0, 0, 1, 537.63446, 3.865858)"><path class="st1" d="M60.9,67.6V53.4h4.8c3.4,0,5.7,1.3,5.7,4.4c0,2.6-1.2,4.6-5.4,4.6c-0.6,0-1.3,0-2.1-0.1v5.2H60.9z M68.5,58   L68.5,58c0-1.6-1-2.4-2.8-2.4h-1.8v4.8c0.2,0,1.1,0,1.6,0C68,60.4,68.5,59.2,68.5,58z" style="fill: rgb(255, 255, 255); stroke: rgb(255, 255, 255); stroke-miterlimit: 10; stroke-width: 0.7114px;"/><path class="st1" d="M76.9,67.6h-2.9V53.4h2.9V67.6z" style="fill: rgb(255, 255, 255); stroke: rgb(255, 255, 255); stroke-miterlimit: 10; stroke-width: 0.7114px;"/><path class="st1" d="M85.1,55.3c-1.4,0-2.3,0.4-2.3,1.6c0,1.1,0.6,1.5,1.5,1.8l2,0.6c2.1,0.7,4.2,1.6,4.2,4.3   c0,2.9-2.4,4.3-5.6,4.3c-2.2,0-3.8-0.4-5.1-1.2l0.8-2.1c1,0.6,2.7,1.1,4.3,1.1c1.6,0,2.6-0.5,2.6-1.7c0-1.3-1-1.7-2.2-2.2l-1.8-0.6   c-1.8-0.6-3.6-1.6-3.6-4c0-2.7,2.3-4.1,5.2-4.1c2,0,3.5,0.3,4.7,1.1l-0.8,2C88.1,55.6,86.8,55.3,85.1,55.3z" style="fill: rgb(255, 255, 255); stroke: rgb(255, 255, 255); stroke-miterlimit: 10; stroke-width: 0.7114px;"/><path class="st1" d="M98.8,67.6h-2.9V55.5h-4.2v-2.2H103v2.2h-4.2V67.6z" style="fill: rgb(255, 255, 255); stroke: rgb(255, 255, 255); stroke-miterlimit: 10; stroke-width: 0.7114px;"/><path class="st1" d="M114,55.5h-6.1v3.5h5.9v2.1h-5.9v4.3l6.6,0.1l-0.1,2.1h-9.5V53.4h9.3L114,55.5z" style="fill: rgb(255, 255, 255); stroke: rgb(255, 255, 255); stroke-miterlimit: 10; stroke-width: 0.7114px;"/><path class="st1" d="M125.4,61.2c0.6,0.7,0.9,1.4,1.4,2.3l2,4.1h-3.1l-1.6-3.4c-0.4-0.8-1.3-2.5-1.3-2.5c-0.4,0-2.9,0-2.9,0v5.9   H117V53.4h5.5c3.3,0,5.4,0.7,5.4,4.1C128,59.4,127.1,60.6,125.4,61.2z M122.7,55.5H120v4.1h2.6c1.8,0,2.6-0.6,2.6-2.2   C125.2,56.1,124.4,55.5,122.7,55.5z" style="fill: rgb(255, 255, 255); stroke: rgb(255, 255, 255); stroke-miterlimit: 10; stroke-width: 0.7114px;"/><path class="st1" d="M137.6,53c4.1,0,7.2,2.7,7.2,7.4c0,4.6-3.1,7.4-7.2,7.4s-7.2-2.7-7.2-7.4C130.4,55.8,133.5,53,137.6,53z    M137.6,55.4c-2.8,0-4.2,2.1-4.2,5.1c0,3,1.4,5.1,4.2,5.1c2.8,0,4.2-2,4.2-5.1C141.8,57.5,140.4,55.4,137.6,55.4z" style="fill: rgb(255, 255, 255); stroke: rgb(255, 255, 255); stroke-miterlimit: 10; stroke-width: 0.7114px;"/><path class="st1" d="M152.4,55.3c-1.4,0-2.3,0.4-2.3,1.6c0,1.1,0.6,1.5,1.5,1.8l2,0.6c2.1,0.7,4.2,1.6,4.2,4.3   c0,2.9-2.4,4.3-5.6,4.3c-2.2,0-3.8-0.4-5.1-1.2l0.8-2.1c1,0.6,2.7,1.1,4.3,1.1c1.6,0,2.6-0.5,2.6-1.7c0-1.3-1-1.7-2.2-2.2l-1.8-0.6   c-1.8-0.6-3.6-1.6-3.6-4c0-2.7,2.3-4.1,5.2-4.1c2,0,3.5,0.3,4.7,1.1l-0.8,2C155.3,55.6,154,55.3,152.4,55.3z" style="fill: rgb(255, 255, 255); stroke: rgb(255, 255, 255); stroke-miterlimit: 10; stroke-width: 0.7114px;"/></g><g transform="matrix(1, 0, 0, 1, 537.63446, 3.865858)"><path class="st1" d="M22,77.1c-1.4,0-2.3,0.4-2.3,1.6c0,1.1,0.6,1.5,1.5,1.8l2,0.6c2.1,0.7,4.2,1.6,4.2,4.3c0,2.9-2.4,4.3-5.6,4.3   c-2.2,0-3.8-0.4-5.1-1.2l0.8-2.1c1,0.6,2.7,1.1,4.3,1.1c1.6,0,2.6-0.5,2.6-1.7c0-1.3-1-1.7-2.2-2.2L20.4,83c-1.8-0.6-3.6-1.6-3.6-4   c0-2.7,2.3-4.1,5.2-4.1c2,0,3.5,0.3,4.7,1.1l-0.8,2C24.9,77.4,23.6,77.1,22,77.1z" style="fill: rgb(255, 255, 255); stroke: rgb(255, 255, 255); stroke-miterlimit: 10; stroke-width: 0.7114px;"/><path class="st1" d="M36.7,74.9c4.1,0,7.2,2.7,7.2,7.4c0,4.6-3.1,7.4-7.2,7.4s-7.2-2.7-7.2-7.4C29.5,77.6,32.6,74.9,36.7,74.9z    M36.7,77.2c-2.8,0-4.2,2.1-4.2,5.1c0,3,1.4,5.1,4.2,5.1c2.8,0,4.2-2,4.2-5.1C40.9,79.4,39.5,77.2,36.7,77.2z" style="fill: rgb(255, 255, 255); stroke: rgb(255, 255, 255); stroke-miterlimit: 10; stroke-width: 0.7114px;"/><path class="st1" d="M53.4,89.7c-3.8,0-7.1-2.7-7.1-7.4c0-4.5,3.1-7.4,7.1-7.4c1.4,0,3.1,0.3,4.3,1.4l-0.8,2.1   c-0.8-0.7-1.7-1.2-3.4-1.2c-2.5,0-4.3,1.9-4.3,5.1c0,3.4,1.8,5.1,4.3,5.1c1.3,0,2.5-0.3,3.5-1.1l0.7,2.1   C56.2,89.5,54.8,89.7,53.4,89.7z" style="fill: rgb(255, 255, 255); stroke: rgb(255, 255, 255); stroke-miterlimit: 10; stroke-width: 0.7114px;"/><path class="st1" d="M67,74.9c4.1,0,7.2,2.7,7.2,7.4c0,4.6-3.1,7.4-7.2,7.4s-7.2-2.7-7.2-7.4C59.9,77.6,62.9,74.9,67,74.9z    M67,77.2c-2.8,0-4.2,2.1-4.2,5.1c0,3,1.4,5.1,4.2,5.1c2.8,0,4.2-2,4.2-5.1C71.3,79.4,69.9,77.2,67,77.2z" style="fill: rgb(255, 255, 255); stroke: rgb(255, 255, 255); stroke-miterlimit: 10; stroke-width: 0.7114px;"/><path class="st1" d="M85.5,83.1c0.6,0.7,0.9,1.4,1.4,2.3l2,4.1h-3.1l-1.6-3.4c-0.4-0.8-1.3-2.5-1.3-2.5c-0.4,0-2.9,0-2.9,0v5.9   h-2.9V75.2h5.5c3.3,0,5.4,0.7,5.4,4.1C88,81.3,87.1,82.5,85.5,83.1z M82.7,77.4H80v4.1h2.6c1.8,0,2.6-0.6,2.6-2.2   C85.3,78,84.4,77.4,82.7,77.4z" style="fill: rgb(255, 255, 255); stroke: rgb(255, 255, 255); stroke-miterlimit: 10; stroke-width: 0.7114px;"/><path class="st1" d="M99.3,83.1c0.6,0.7,0.9,1.4,1.4,2.3l2,4.1h-3.1l-1.6-3.4c-0.4-0.8-1.3-2.5-1.3-2.5c-0.4,0-2.9,0-2.9,0v5.9   h-2.9V75.2h5.5c3.3,0,5.4,0.7,5.4,4.1C101.9,81.3,101,82.5,99.3,83.1z M96.6,77.4h-2.7v4.1h2.6c1.8,0,2.6-0.6,2.6-2.2   C99.1,78,98.3,77.4,96.6,77.4z" style="fill: rgb(255, 255, 255); stroke: rgb(255, 255, 255); stroke-miterlimit: 10; stroke-width: 0.7114px;"/><path class="st1" d="M107.9,89.5h-2.9V75.2h2.9V89.5z" style="fill: rgb(255, 255, 255); stroke: rgb(255, 255, 255); stroke-miterlimit: 10; stroke-width: 0.7114px;"/><path class="st1" d="M116.1,77.1c-1.4,0-2.3,0.4-2.3,1.6c0,1.1,0.6,1.5,1.5,1.8l2,0.6c2.1,0.7,4.2,1.6,4.2,4.3   c0,2.9-2.4,4.3-5.6,4.3c-2.2,0-3.8-0.4-5.1-1.2l0.8-2.1c1,0.6,2.7,1.1,4.3,1.1c1.6,0,2.6-0.5,2.6-1.7c0-1.3-1-1.7-2.2-2.2l-1.8-0.6   c-1.8-0.6-3.6-1.6-3.6-4c0-2.7,2.3-4.1,5.2-4.1c2,0,3.5,0.3,4.7,1.1l-0.8,2C119.1,77.4,117.8,77.1,116.1,77.1z" style="fill: rgb(255, 255, 255); stroke: rgb(255, 255, 255); stroke-miterlimit: 10; stroke-width: 0.7114px;"/><path class="st1" d="M129.8,89.5h-2.9V77.4h-4.2v-2.2H134v2.2h-4.2V89.5z" style="fill: rgb(255, 255, 255); stroke: rgb(255, 255, 255); stroke-miterlimit: 10; stroke-width: 0.7114px;"/><path class="st1" d="M143.3,85.1h-4.2l-1.6,4.4h-2.9l0.4-1.2l4.8-13.1h2.8l4.7,13.1l0.4,1.2h-2.8L143.3,85.1z M142.6,83.3l-1.4-4.8   l-1.5,4.8H142.6z" style="fill: rgb(255, 255, 255); stroke: rgb(255, 255, 255); stroke-miterlimit: 10; stroke-width: 0.7114px;"/><path class="st1" d="M154.5,77.1c-1.4,0-2.3,0.4-2.3,1.6c0,1.1,0.6,1.5,1.5,1.8l2,0.6c2.1,0.7,4.2,1.6,4.2,4.3   c0,2.9-2.4,4.3-5.6,4.3c-2.2,0-3.8-0.4-5.1-1.2l0.8-2.1c1,0.6,2.7,1.1,4.3,1.1c1.6,0,2.6-0.5,2.6-1.7c0-1.3-1-1.7-2.2-2.2l-1.8-0.6   c-1.8-0.6-3.6-1.6-3.6-4c0-2.7,2.3-4.1,5.2-4.1c2,0,3.5,0.3,4.7,1.1l-0.8,2C157.4,77.4,156.2,77.1,154.5,77.1z" style="fill: rgb(255, 255, 255); stroke: rgb(255, 255, 255); stroke-miterlimit: 10; stroke-width: 0.7114px;"/></g></g></svg>