<?xml version="1.0" encoding="utf-8"?>
<svg xmlns="http://www.w3.org/2000/svg" viewBox="579.2365 208.9196 151.9131 72.8004" width="151.913px" height="72.8004px" preserveAspectRatio="none"><g id="svg-2" transform="matrix(1, 0, 0, 1, 28.78421974182129, 53.69364166259764)"><path class="st0" d="M 601.165 173.126 L 599.665 186.726 C 599.565 187.426 598.965 188.026 598.265 188.026 L 584.265 188.026 C 583.565 188.026 582.965 188.626 582.865 189.326 L 581.365 203.326 C 581.265 204.026 580.665 204.626 579.965 204.626 L 566.265 204.626 C 565.565 204.626 565.065 204.026 565.165 203.326 L 566.665 189.326 C 566.765 188.626 566.265 188.026 565.565 188.026 L 551.565 188.026 C 550.865 188.026 550.365 187.426 550.465 186.726 L 551.965 173.126 C 552.065 172.426 552.665 171.826 553.365 171.826 L 567.365 171.826 C 568.065 171.826 568.665 171.226 568.765 170.526 L 570.265 156.526 C 570.365 155.826 570.965 155.226 571.665 155.226 L 585.265 155.226 C 585.965 155.226 586.465 155.826 586.365 156.526 L 584.865 170.526 C 584.765 171.226 585.265 171.826 585.965 171.826 L 599.965 171.826 C 600.765 171.826 601.265 172.426 601.165 173.126 M 586.565 201.026 L 586.565 200.826 C 586.565 200.326 586.265 200.026 585.765 200.026 L 570.765 200.026 C 570.265 200.026 569.965 200.426 569.865 200.826 L 569.865 201.026 C 569.865 201.526 570.165 201.826 570.665 201.826 L 585.665 201.826 C 586.165 201.826 586.465 201.426 586.565 201.026 M 589.465 196.926 L 589.465 196.726 C 589.465 196.226 589.165 195.926 588.665 195.926 L 573.665 195.926 C 573.165 195.926 572.865 196.326 572.765 196.726 L 572.765 196.926 C 572.765 197.426 573.065 197.726 573.565 197.726 L 588.565 197.726 C 589.065 197.726 589.465 197.426 589.465 196.926 M 593.965 192.826 L 593.965 192.626 C 593.965 192.126 593.665 191.826 593.165 191.826 L 577.165 191.826 C 576.665 191.826 576.365 192.226 576.265 192.626 L 576.265 192.826 C 576.265 193.326 576.565 193.626 577.065 193.626 L 593.065 193.626 C 593.565 193.726 593.965 193.326 593.965 192.826" style="stroke-width: 1; fill: rgb(255, 51, 51);"/><g transform="matrix(1, 0, 0, 1, 542.465393, 138.326401)"><path class="st1" d="M60.9,67.6V53.4h4.8c3.4,0,5.7,1.3,5.7,4.4c0,2.6-1.2,4.6-5.4,4.6c-0.6,0-1.3,0-2.1-0.1v5.2H60.9z M68.5,58   L68.5,58c0-1.6-1-2.4-2.8-2.4h-1.8v4.8c0.2,0,1.1,0,1.6,0C68,60.4,68.5,59.2,68.5,58z" style="stroke: rgb(255, 255, 255); stroke-miterlimit: 10; stroke-width: 0.7114px; fill: rgb(255, 51, 51);"/><path class="st1" d="M76.9,67.6h-2.9V53.4h2.9V67.6z" style="stroke: rgb(255, 255, 255); stroke-miterlimit: 10; stroke-width: 0.7114px; fill: rgb(255, 51, 51);"/><path class="st1" d="M85.1,55.3c-1.4,0-2.3,0.4-2.3,1.6c0,1.1,0.6,1.5,1.5,1.8l2,0.6c2.1,0.7,4.2,1.6,4.2,4.3   c0,2.9-2.4,4.3-5.6,4.3c-2.2,0-3.8-0.4-5.1-1.2l0.8-2.1c1,0.6,2.7,1.1,4.3,1.1c1.6,0,2.6-0.5,2.6-1.7c0-1.3-1-1.7-2.2-2.2l-1.8-0.6   c-1.8-0.6-3.6-1.6-3.6-4c0-2.7,2.3-4.1,5.2-4.1c2,0,3.5,0.3,4.7,1.1l-0.8,2C88.1,55.6,86.8,55.3,85.1,55.3z" style="stroke: rgb(255, 255, 255); stroke-miterlimit: 10; stroke-width: 0.7114px; fill: rgb(255, 51, 51);"/><path class="st1" d="M98.8,67.6h-2.9V55.5h-4.2v-2.2H103v2.2h-4.2V67.6z" style="stroke: rgb(255, 255, 255); stroke-miterlimit: 10; stroke-width: 0.7114px; fill: rgb(255, 51, 51);"/><path class="st1" d="M114,55.5h-6.1v3.5h5.9v2.1h-5.9v4.3l6.6,0.1l-0.1,2.1h-9.5V53.4h9.3L114,55.5z" style="stroke: rgb(255, 255, 255); stroke-miterlimit: 10; stroke-width: 0.7114px; fill: rgb(255, 51, 51);"/><path class="st1" d="M125.4,61.2c0.6,0.7,0.9,1.4,1.4,2.3l2,4.1h-3.1l-1.6-3.4c-0.4-0.8-1.3-2.5-1.3-2.5c-0.4,0-2.9,0-2.9,0v5.9   H117V53.4h5.5c3.3,0,5.4,0.7,5.4,4.1C128,59.4,127.1,60.6,125.4,61.2z M122.7,55.5H120v4.1h2.6c1.8,0,2.6-0.6,2.6-2.2   C125.2,56.1,124.4,55.5,122.7,55.5z" style="stroke: rgb(255, 255, 255); stroke-miterlimit: 10; stroke-width: 0.7114px; fill: rgb(255, 51, 51);"/><path class="st1" d="M137.6,53c4.1,0,7.2,2.7,7.2,7.4c0,4.6-3.1,7.4-7.2,7.4s-7.2-2.7-7.2-7.4C130.4,55.8,133.5,53,137.6,53z    M137.6,55.4c-2.8,0-4.2,2.1-4.2,5.1c0,3,1.4,5.1,4.2,5.1c2.8,0,4.2-2,4.2-5.1C141.8,57.5,140.4,55.4,137.6,55.4z" style="stroke: rgb(255, 255, 255); stroke-miterlimit: 10; stroke-width: 0.7114px; fill: rgb(255, 51, 51);"/><path class="st1" d="M152.4,55.3c-1.4,0-2.3,0.4-2.3,1.6c0,1.1,0.6,1.5,1.5,1.8l2,0.6c2.1,0.7,4.2,1.6,4.2,4.3   c0,2.9-2.4,4.3-5.6,4.3c-2.2,0-3.8-0.4-5.1-1.2l0.8-2.1c1,0.6,2.7,1.1,4.3,1.1c1.6,0,2.6-0.5,2.6-1.7c0-1.3-1-1.7-2.2-2.2l-1.8-0.6   c-1.8-0.6-3.6-1.6-3.6-4c0-2.7,2.3-4.1,5.2-4.1c2,0,3.5,0.3,4.7,1.1l-0.8,2C155.3,55.6,154,55.3,152.4,55.3z" style="stroke: rgb(255, 255, 255); stroke-miterlimit: 10; stroke-width: 0.7114px; fill: rgb(255, 51, 51);"/></g><g transform="matrix(1, 0, 0, 1, 542.465393, 138.326401)"><path class="st1" d="M22,77.1c-1.4,0-2.3,0.4-2.3,1.6c0,1.1,0.6,1.5,1.5,1.8l2,0.6c2.1,0.7,4.2,1.6,4.2,4.3c0,2.9-2.4,4.3-5.6,4.3   c-2.2,0-3.8-0.4-5.1-1.2l0.8-2.1c1,0.6,2.7,1.1,4.3,1.1c1.6,0,2.6-0.5,2.6-1.7c0-1.3-1-1.7-2.2-2.2L20.4,83c-1.8-0.6-3.6-1.6-3.6-4   c0-2.7,2.3-4.1,5.2-4.1c2,0,3.5,0.3,4.7,1.1l-0.8,2C24.9,77.4,23.6,77.1,22,77.1z" style="stroke: rgb(255, 255, 255); stroke-miterlimit: 10; stroke-width: 0.7114px; fill: rgb(255, 51, 51);"/><path class="st1" d="M36.7,74.9c4.1,0,7.2,2.7,7.2,7.4c0,4.6-3.1,7.4-7.2,7.4s-7.2-2.7-7.2-7.4C29.5,77.6,32.6,74.9,36.7,74.9z    M36.7,77.2c-2.8,0-4.2,2.1-4.2,5.1c0,3,1.4,5.1,4.2,5.1c2.8,0,4.2-2,4.2-5.1C40.9,79.4,39.5,77.2,36.7,77.2z" style="stroke: rgb(255, 255, 255); stroke-miterlimit: 10; stroke-width: 0.7114px; fill: rgb(255, 51, 51);"/><path class="st1" d="M53.4,89.7c-3.8,0-7.1-2.7-7.1-7.4c0-4.5,3.1-7.4,7.1-7.4c1.4,0,3.1,0.3,4.3,1.4l-0.8,2.1   c-0.8-0.7-1.7-1.2-3.4-1.2c-2.5,0-4.3,1.9-4.3,5.1c0,3.4,1.8,5.1,4.3,5.1c1.3,0,2.5-0.3,3.5-1.1l0.7,2.1   C56.2,89.5,54.8,89.7,53.4,89.7z" style="stroke: rgb(255, 255, 255); stroke-miterlimit: 10; stroke-width: 0.7114px; fill: rgb(255, 51, 51);"/><path class="st1" d="M67,74.9c4.1,0,7.2,2.7,7.2,7.4c0,4.6-3.1,7.4-7.2,7.4s-7.2-2.7-7.2-7.4C59.9,77.6,62.9,74.9,67,74.9z    M67,77.2c-2.8,0-4.2,2.1-4.2,5.1c0,3,1.4,5.1,4.2,5.1c2.8,0,4.2-2,4.2-5.1C71.3,79.4,69.9,77.2,67,77.2z" style="stroke: rgb(255, 255, 255); stroke-miterlimit: 10; stroke-width: 0.7114px; fill: rgb(255, 51, 51);"/><path class="st1" d="M85.5,83.1c0.6,0.7,0.9,1.4,1.4,2.3l2,4.1h-3.1l-1.6-3.4c-0.4-0.8-1.3-2.5-1.3-2.5c-0.4,0-2.9,0-2.9,0v5.9   h-2.9V75.2h5.5c3.3,0,5.4,0.7,5.4,4.1C88,81.3,87.1,82.5,85.5,83.1z M82.7,77.4H80v4.1h2.6c1.8,0,2.6-0.6,2.6-2.2   C85.3,78,84.4,77.4,82.7,77.4z" style="stroke: rgb(255, 255, 255); stroke-miterlimit: 10; stroke-width: 0.7114px; fill: rgb(255, 51, 51);"/><path class="st1" d="M99.3,83.1c0.6,0.7,0.9,1.4,1.4,2.3l2,4.1h-3.1l-1.6-3.4c-0.4-0.8-1.3-2.5-1.3-2.5c-0.4,0-2.9,0-2.9,0v5.9   h-2.9V75.2h5.5c3.3,0,5.4,0.7,5.4,4.1C101.9,81.3,101,82.5,99.3,83.1z M96.6,77.4h-2.7v4.1h2.6c1.8,0,2.6-0.6,2.6-2.2   C99.1,78,98.3,77.4,96.6,77.4z" style="stroke: rgb(255, 255, 255); stroke-miterlimit: 10; stroke-width: 0.7114px; fill: rgb(255, 51, 51);"/><path class="st1" d="M107.9,89.5h-2.9V75.2h2.9V89.5z" style="stroke: rgb(255, 255, 255); stroke-miterlimit: 10; stroke-width: 0.7114px; fill: rgb(255, 51, 51);"/><path class="st1" d="M116.1,77.1c-1.4,0-2.3,0.4-2.3,1.6c0,1.1,0.6,1.5,1.5,1.8l2,0.6c2.1,0.7,4.2,1.6,4.2,4.3   c0,2.9-2.4,4.3-5.6,4.3c-2.2,0-3.8-0.4-5.1-1.2l0.8-2.1c1,0.6,2.7,1.1,4.3,1.1c1.6,0,2.6-0.5,2.6-1.7c0-1.3-1-1.7-2.2-2.2l-1.8-0.6   c-1.8-0.6-3.6-1.6-3.6-4c0-2.7,2.3-4.1,5.2-4.1c2,0,3.5,0.3,4.7,1.1l-0.8,2C119.1,77.4,117.8,77.1,116.1,77.1z" style="stroke: rgb(255, 255, 255); stroke-miterlimit: 10; stroke-width: 0.7114px; fill: rgb(255, 51, 51);"/><path class="st1" d="M129.8,89.5h-2.9V77.4h-4.2v-2.2H134v2.2h-4.2V89.5z" style="stroke: rgb(255, 255, 255); stroke-miterlimit: 10; stroke-width: 0.7114px; fill: rgb(255, 51, 51);"/><path class="st1" d="M143.3,85.1h-4.2l-1.6,4.4h-2.9l0.4-1.2l4.8-13.1h2.8l4.7,13.1l0.4,1.2h-2.8L143.3,85.1z M142.6,83.3l-1.4-4.8   l-1.5,4.8H142.6z" style="stroke: rgb(255, 255, 255); stroke-miterlimit: 10; stroke-width: 0.7114px; fill: rgb(255, 51, 51);"/><path class="st1" d="M154.5,77.1c-1.4,0-2.3,0.4-2.3,1.6c0,1.1,0.6,1.5,1.5,1.8l2,0.6c2.1,0.7,4.2,1.6,4.2,4.3   c0,2.9-2.4,4.3-5.6,4.3c-2.2,0-3.8-0.4-5.1-1.2l0.8-2.1c1,0.6,2.7,1.1,4.3,1.1c1.6,0,2.6-0.5,2.6-1.7c0-1.3-1-1.7-2.2-2.2l-1.8-0.6   c-1.8-0.6-3.6-1.6-3.6-4c0-2.7,2.3-4.1,5.2-4.1c2,0,3.5,0.3,4.7,1.1l-0.8,2C157.4,77.4,156.2,77.1,154.5,77.1z" style="stroke: rgb(255, 255, 255); stroke-miterlimit: 10; stroke-width: 0.7114px; fill: rgb(255, 51, 51);"/></g></g></svg>