<?xml version="1.0" encoding="utf-8"?>
<svg xmlns="http://www.w3.org/2000/svg" width="588pt" height="60pt" version="1.1" viewBox="-6.255 106.34 594.255 67.021">
  <g id="surface1" transform="matrix(1, 0, 0, 1, -3.574468, 109.914894)">
    <path style=" stroke:none;fill-rule:evenodd;fill:rgb(13.699341%,12.199402%,12.5%);fill-opacity:1;" d="M 264.179688 22.5625 L 275.929688 22.5625 L 275.929688 46.683594 L 282.734375 46.683594 C 284.160156 46.683594 284.589844 46.253906 284.589844 44.832031 L 284.589844 22.5625 L 295.722656 22.5625 L 295.722656 15.757813 L 264.179688 15.757813 L 264.179688 22.5625 "/>
    <path style=" stroke:none;fill-rule:evenodd;fill:rgb(13.699341%,12.199402%,12.5%);fill-opacity:1;" d="M 324.179688 37.40625 L 324.179688 36.167969 C 324.179688 34.421875 325.597656 33.785156 326.664063 33.222656 L 338.40625 32.457031 L 338.40625 40.5 L 330.980469 40.5 C 328.152344 40.5 324.179688 40.132813 324.179688 37.40625 Z M 324.796875 46.066406 L 346.445313 46.066406 L 346.445313 33.078125 L 353.25 33.078125 L 353.25 27.511719 L 347.066406 27.511719 L 347.066406 22.5625 L 338.40625 22.5625 L 338.40625 27.511719 L 330.363281 27.511719 C 327.371094 27.511719 324.796875 26.75 324.796875 23.796875 C 324.796875 22.914063 326.28125 20.707031 327.890625 20.707031 L 335.3125 20.707031 L 335.3125 15.757813 L 325.414063 15.757813 C 320.234375 15.757813 316.753906 18.554688 316.753906 23.796875 C 316.753906 26.980469 319.339844 29.734375 322.320313 29.984375 C 321.144531 31.589844 315.519531 31.964844 315.519531 36.167969 L 315.519531 38.644531 C 315.519531 42.945313 320.160156 46.066406 324.796875 46.066406 "/>
    <path style=" stroke:none;fill-rule:evenodd;fill:rgb(13.699341%,12.199402%,12.5%);fill-opacity:1;" d="M 244.382813 22.5625 L 261.703125 22.5625 L 261.703125 15.757813 L 235.722656 15.757813 L 235.722656 46.683594 L 262.320313 46.683594 L 262.320313 39.882813 L 244.382813 39.882813 L 244.382813 34.316406 L 261.085938 34.316406 L 261.085938 27.511719 L 244.382813 27.511719 L 244.382813 22.5625 "/>
    <path style=" stroke:none;fill-rule:evenodd;fill:rgb(13.699341%,12.199402%,12.5%);fill-opacity:1;" d="M 81.703125 22.5625 L 92.835938 22.5625 L 92.835938 46.683594 L 101.496094 46.683594 L 101.496094 22.5625 L 113.246094 22.5625 L 113.246094 15.757813 L 81.703125 15.757813 L 81.703125 22.5625 "/>
    <path style=" stroke:none;fill-rule:evenodd;fill:rgb(13.699341%,12.199402%,12.5%);fill-opacity:1;" d="M 149.742188 16.375 L 141.085938 16.375 L 141.085938 28.128906 L 125.621094 28.128906 L 125.621094 16.375 L 116.960938 16.375 L 116.960938 46.066406 L 125.621094 46.066406 L 125.621094 34.316406 L 141.085938 34.316406 L 141.085938 46.066406 L 149.742188 46.066406 L 149.742188 16.375 "/>
    <path style=" stroke:none;fill-rule:evenodd;fill:rgb(13.699341%,12.199402%,12.5%);fill-opacity:1;" d="M 217.785156 46.066406 L 228.921875 46.066406 L 228.921875 16.375 L 221.496094 16.375 L 221.496094 37.40625 C 219.128906 34.683594 209.042969 16.375 206.652344 16.375 L 196.136719 16.375 L 196.136719 46.683594 L 204.175781 46.683594 L 204.175781 25.65625 L 217.785156 46.066406 "/>
    <path style=" stroke:none;fill-rule:evenodd;fill:rgb(13.699341%,12.199402%,12.5%);fill-opacity:1;" d="M 371.117188 15.789063 L 383.695313 46.011719 L 394.695313 46.066406 L 407.441406 15.917969 L 400.261719 15.757813 C 396.882813 15.757813 392.507813 36.167969 389.128906 38.644531 C 388.921875 36.179688 385.695313 29.140625 384.601563 26.46875 C 383.648438 24.128906 381.539063 15.757813 379.230469 15.757813 L 371.117188 15.789063 "/>
    <path style=" stroke:none;fill-rule:evenodd;fill:rgb(13.699341%,12.199402%,12.5%);fill-opacity:1;" d="M 425.210938 23.28125 L 430.75 34.230469 L 419.851563 34.214844 Z M 414.488281 46.683594 C 414.949219 44.699219 415.945313 40.5 418.199219 40.5 L 432.425781 40.5 C 435.648438 40.5 433.890625 46.066406 437.375 46.066406 L 445.417969 46.066406 C 444.613281 42.617188 440.035156 34.734375 438.195313 30.398438 C 437.175781 27.996094 431.984375 16.375 429.953125 16.375 L 421.910156 16.375 C 419.8125 16.375 414.28125 28.539063 413.042969 31.015625 C 411.101563 34.894531 406.003906 43.285156 405.210938 46.683594 L 414.488281 46.683594 "/>
    <path style=" stroke:none;fill-rule:evenodd;fill:rgb(13.699341%,12.199402%,12.5%);fill-opacity:1;" d="M 454.078125 46.683594 C 457.371094 46.683594 455.933594 30.132813 455.933594 26.273438 C 459.550781 28.695313 467.746094 46.683594 470.777344 46.683594 L 480.675781 46.683594 L 480.675781 16.375 L 473.253906 16.375 L 473.253906 37.40625 C 469.957031 35.199219 460.6875 15.757813 457.789063 15.757813 L 447.890625 15.757813 L 447.890625 46.683594 L 454.078125 46.683594 "/>
    <path style=" stroke:none;fill-rule:evenodd;fill:rgb(13.699341%,12.199402%,12.5%);fill-opacity:1;" d="M 496.140625 39.882813 L 495.484375 22.5625 L 505.417969 23.179688 C 508.789063 23.460938 512.222656 25.742188 512.222656 29.367188 L 512.222656 33.078125 C 512.222656 40.140625 503.363281 39.882813 496.140625 39.882813 Z M 499.230469 46.683594 C 510.988281 46.683594 521.5 44.675781 521.5 33.078125 L 521.5 29.984375 C 521.5 22.324219 514.746094 16.375 506.652344 16.375 L 487.480469 16.375 L 487.480469 46.683594 L 499.230469 46.683594 "/>
    <path style=" stroke:none;fill-rule:evenodd;fill:rgb(13.699341%,12.199402%,12.5%);fill-opacity:1;" d="M 527.066406 46.066406 L 553.046875 46.066406 L 553.046875 39.882813 L 535.109375 39.882813 L 535.109375 34.316406 L 551.808594 34.316406 L 551.808594 28.128906 L 535.109375 28.128906 L 535.109375 22.5625 L 552.429688 22.5625 L 552.429688 16.375 L 527.066406 16.375 L 527.066406 46.066406 "/>
    <path style=" stroke:none;fill-rule:evenodd;fill:rgb(13.699341%,12.199402%,12.5%);fill-opacity:1;" d="M 566.035156 21.941406 L 574.078125 21.941406 C 576.160156 21.941406 578.40625 23.035156 578.40625 25.035156 L 578.40625 26.273438 C 578.40625 28.175781 576.59375 28.746094 574.695313 28.746094 L 566.035156 28.746094 Z M 557.996094 46.066406 L 565.988281 46.066406 L 566.65625 34.933594 C 580.996094 34.933594 576.226563 34.046875 579.027344 46.066406 L 587.6875 46.066406 C 587.6875 43.414063 586.84375 39.3125 586.347656 36.273438 C 585.53125 31.300781 583.269531 33.015625 581.5 30.601563 C 584.265625 29.960938 587.066406 27.765625 587.066406 24.417969 L 587.066406 22.5625 C 587.066406 15.097656 574.503906 15.757813 566.65625 15.757813 L 557.996094 15.757813 L 557.996094 46.066406 "/>
    <path style=" stroke:none;fill-rule:evenodd;fill:rgb(13.699341%,12.199402%,12.5%);fill-opacity:1;" d="M 163.96875 29.984375 C 163.96875 24.742188 167.3125 21.324219 172.628906 21.324219 L 174.484375 21.324219 C 179.1875 21.324219 182.527344 26.40625 182.527344 31.222656 L 182.527344 33.078125 C 182.527344 37.503906 178.667969 41.117188 173.867188 41.117188 L 171.394531 41.117188 C 168.058594 41.117188 163.96875 37.785156 163.96875 34.316406 Z M 154.691406 32.457031 C 154.691406 39.726563 161.152344 46.683594 168.300781 46.683594 L 176.34375 46.683594 C 183.964844 46.683594 191.1875 41.15625 191.1875 33.695313 L 191.1875 28.128906 C 191.1875 21.863281 183.65625 15.757813 176.960938 15.757813 L 170.773438 15.757813 C 161.535156 15.757813 154.691406 22.003906 154.691406 31.222656 L 154.691406 32.457031 "/>
    <path style=" stroke:none;fill-rule:evenodd;fill:rgb(57.598877%,58.399963%,59.599304%);fill-opacity:1;" d="M 228.921875 16.375 L 228.921875 46.066406 L 217.785156 46.066406 L 228.921875 46.066406 L 228.921875 16.375 L 221.496094 16.375 L 228.921875 16.375 "/>
    <path style=" stroke:none;fill-rule:evenodd;fill:rgb(57.598877%,58.399963%,59.599304%);fill-opacity:1;" d="M 527.066406 46.066406 L 553.046875 46.066406 L 527.066406 46.066406 L 527.066406 16.375 L 552.429688 16.375 L 527.066406 16.375 L 527.066406 46.066406 "/>
    <path style=" stroke:none;fill-rule:evenodd;fill:rgb(97.299194%,86.698914%,13.699341%);fill-opacity:1;" d="M 11.804688 48.542969 L 53.246094 48.542969 L 53.246094 12.046875 L 11.804688 12.046875 L 11.804688 48.542969 "/>
    <path style=" stroke:none;fill-rule:evenodd;fill:rgb(13.699341%,12.199402%,12.5%);fill-opacity:1;" d="M 11.804688 12.046875 L 53.246094 12.046875 L 53.246094 48.542969 L 11.804688 48.542969 Z M 65.617188 0.910156 L 0.0507813 0.910156 L 0.0507813 59.054688 L 65.617188 59.054688 L 65.617188 0.910156 "/>
  </g>
</svg>